<svg version="1.1" xmlns="http://www.w3.org/2000/svg" viewBox="0 0 712.527551475254 181.1015625">
  <!-- svg-source:excalidraw -->
  <defs>
    <style>
      @font-face {
        font-family: "Virgil";
        src: url("https://excalidraw.com/FG_Virgil.woff2");
      }
      @font-face {
        font-family: "Cascadia";
        src: url("https://excalidraw.com/Cascadia.woff2");
      }
    </style>
  </defs>
  <rect x="0" y="0" width="712.527551475254" height="181.1015625" fill="#ffffff"></rect><g transform="translate(10 50.40234375) rotate(0 52.5 12)"><text x="0" y="19" font-family="Cascadia, Segoe UI Emoji" font-size="20px" fill="#000000" text-anchor="start" style="white-space: pre;" direction="ltr">["post1"]</text></g><g transform="translate(238.41796875000023 10) rotate(0 69.466796875 61.666015625)"><path d="M1.9653284661471844 0.3703893907368183 C36.60589860594119 -0.4091977497774495, 76.961079799202 -2.375141682310714, 138.73586953803897 -0.34543557092547417 M-0.5922730918973684 0.3855810221284628 C52.33959790245645 1.3866008187006083, 103.22547318452999 1.053510811395463, 139.65516682900488 -0.945903355255723 M139.82288755103946 -0.89893002435565 C138.32739900634616 38.73997188081339, 139.71388851688235 82.66407962704689, 140.62652112171054 122.62919108942151 M138.30250712670386 0.8176068719476461 C139.09552776292557 43.62986753864607, 137.42594080642456 89.41350843910914, 139.7909996751696 123.17344511114061 M138.41620637103915 124.52586143091321 C84.28605207814616 121.16290058916223, 30.41323344809497 120.71184160535944, -1.5401583798229694 122.34687881544232 M138.7752387765795 123.37910926900804 C85.89975968444705 125.32655157515175, 31.138563200346837 124.80907817551262, 0.32027467526495457 123.3108809646219 M1.3945769183337688 124.9544561393559 C0.8533200889966248 97.49631743164427, -0.6887716382601501 73.8470662056221, -0.20472072437405586 1.9259137399494648 M-0.08759132586419582 123.2111404594034 C-0.5880667486333553 74.65937789941745, -0.154508105769128 26.979264127883653, 0.7064317706972361 0.16800332628190517" stroke="#000000" stroke-width="1" fill="none"></path></g><g><g transform="translate(171.50000000000023 65.96093749999994) rotate(0 29.28398373567967 0.7160038996383946)"><path d="M1.1791970796883107 0.222233634442091 C10.80145741974314 0.46608237947026887, 48.43900210733215 2.0455928218861423, 58.22883065417409 2.174351387470961 M0.3391368171852083 -0.7066976528149098 C9.711019578206663 -0.9089664278210452, 47.085644500978916 -0.23942345527621622, 56.986663471488285 0.18227596086449904" stroke="#000000" stroke-width="1" fill="none"></path></g><g transform="translate(171.50000000000023 65.96093749999994) rotate(0 29.28398373567967 0.7160038996383946)"><path d="M29.449106508544823 8.528219793783697 C38.96221004961823 7.902648315250441, 46.52047751534329 2.6561880862494647, 56.64122790056281 1.66183181730099 M29.464298139936467 9.843458699854287 C37.33312449932274 6.319335218102827, 44.871116394144096 5.114381310285842, 56.04076011623256 0.48141441185958667" stroke="#000000" stroke-width="1" fill="none"></path></g><g transform="translate(171.50000000000023 65.96093749999994) rotate(0 29.28398373567967 0.7160038996383946)"><path d="M30.013472870437674 -11.581691193741436 C39.45316837009714 -5.338759571356989, 46.81883318177472 -3.7222625258220816, 56.64122790056281 1.66183181730099 M30.02866450182932 -10.266452287670846 C37.58270595211644 -8.122173315251915, 44.96152548072469 -3.6553821787972955, 56.04076011623256 0.48141441185958667" stroke="#000000" stroke-width="1" fill="none"></path></g></g><g transform="translate(267.5273437500002 146.1015625) rotate(0 43 12.5)"><text x="0" y="18" font-family="Virgil, Segoe UI Emoji" font-size="20px" fill="#000000" text-anchor="start" style="white-space: pre;" direction="ltr">ACTION</text></g><g transform="translate(299.8457031250002 44.123046875) rotate(0 9 22.5)"><text x="9" y="32" font-family="Virgil, Segoe UI Emoji" font-size="36px" fill="#000000" text-anchor="middle" style="white-space: pre;" direction="ltr">f</text></g><g><g transform="translate(389.4140625000002 64.97851562500006) rotate(0 29.50058926402596 1.9792856697831311)"><path d="M0.24857013747096057 1.1291058607399462 C9.854542244722445 1.5236689555148282, 48.13586110795538 1.5264119056363903, 57.858066277951 1.8071467228233815 M-1.0800692696962506 0.6762824922893196 C8.876973936300104 1.313853100646908, 50.28335447692933 3.238825647442912, 60.08124779774808 3.282288847276941" stroke="#000000" stroke-width="1" fill="none"></path></g><g transform="translate(389.4140625000002 64.97851562500006) rotate(0 29.50058926402596 1.9792856697831311)"><path d="M34.04192225994328 10.970431916302534 C40.89892770496874 9.175763019351638, 51.46964359712134 6.218887346085659, 58.53362739323639 2.097742663482204 M31.46939486438194 12.50052077498147 C42.29933848296622 8.360999009381882, 51.329841720953986 5.8908600313484, 60.141997412359345 3.7269357477966696" stroke="#000000" stroke-width="1" fill="none"></path></g><g transform="translate(389.4140625000002 64.97851562500006) rotate(0 29.50058926402596 1.9792856697831311)"><path d="M34.635003651061126 -9.138652691907012 C41.209219879429504 -4.526958107221869, 51.59102780149108 -1.0786988182094914, 58.53362739323639 2.097742663482204 M32.06247625549979 -7.608563833228075 C42.76834737513917 -4.938144518405595, 51.598058102892324 -0.6001899742460948, 60.141997412359345 3.7269357477966696" stroke="#000000" stroke-width="1" fill="none"></path></g></g><g transform="translate(14.546875 144.5) rotate(0 51.5 10)"><text x="0" y="14" font-family="Virgil, Segoe UI Emoji" font-size="16px" fill="#000000" text-anchor="start" style="white-space: pre;" direction="ltr">OLD STATE</text></g><g transform="translate(542.7695312500001 141.0078125) rotate(0 50 10)"><text x="0" y="14" font-family="Virgil, Segoe UI Emoji" font-size="16px" fill="#000000" text-anchor="start" style="white-space: pre;" direction="ltr">NEW STATE</text></g><g transform="translate(491.527551475254 56.509765625) rotate(0 105.5 12)"><text x="0" y="19" font-family="Cascadia, Segoe UI Emoji" font-size="20px" fill="#000000" text-anchor="start" style="white-space: pre;" direction="ltr">["post2", "post1"]</text></g></svg>