<svg version="1.1" xmlns="http://www.w3.org/2000/svg" viewBox="0 0 697.4473694876269 231.26953125">
  <!-- svg-source:excalidraw -->
  <defs>
    <style>
      @font-face {
        font-family: "Virgil";
        src: url("https://excalidraw.com/FG_Virgil.woff2");
      }
      @font-face {
        font-family: "Cascadia";
        src: url("https://excalidraw.com/Cascadia.woff2");
      }
    </style>
  </defs>
  <rect x="0" y="0" width="697.4473694876269" height="231.26953125" fill="#ffffff"></rect><g transform="translate(18.44325551237307 138.796875) rotate(0 64.5 12)"><text x="0" y="19" font-family="Cascadia, Segoe UI Emoji" font-size="20px" fill="#000000" text-anchor="start" style="white-space: pre;" direction="ltr">{posts: []}</text></g><g transform="translate(237.21278676237307 29.36328125) rotate(0 69.466796875 61.666015625)"><path d="M-1.609169591218233 -0.2253376953303814 C32.37338394199251 0.6191122192468175, 65.98766278648255 -0.6916460138235561, 138.01203752681613 -0.440449308604002 M-0.8330439683049917 0.13460594974458218 C34.79336082170266 0.2935103535037342, 69.5978299580238 0.6985928773265186, 139.81080975569785 0.09381104074418545 M137.8819840066135 1.7460769899189472 C139.18358579967398 42.73332154554155, 138.86246041152853 83.0398295594161, 139.34011663123965 122.59803156927228 M138.50150027312338 0.4157776888459921 C137.85245365851915 44.37500546066949, 138.5797954892496 87.68409247016389, 139.44835730828345 123.483753150329 M139.79066003486514 122.7786679752171 C101.0802111099685 123.36829632151894, 61.270774605726174 123.08340936530404, -0.5315914042294025 122.88335769250989 M138.73229428566992 122.40558857284486 C110.28565792978262 124.74826163775383, 83.25158299052127 123.69588948018013, -0.07149527035653591 124.18383586965501 M-1.0893182642757893 124.85009639337659 C-1.5430360722704064 94.3144828374141, -1.956072776333822 62.27025188032857, -0.7741070874035358 1.0767839439213276 M0.3423092607408762 122.94235647283494 C-1.2056323378149685 77.77002393910735, -0.4321517436567959 32.58610044773813, 0.04867633618414402 -0.3445760551840067" stroke="#000000" stroke-width="1" fill="none"></path></g><g><g transform="translate(150.20888051237307 124.67187499999989) rotate(0 31.79418500105851 -10.407810051678666)"><path d="M-0.9655017547309398 -0.1352026171982288 C9.442629378293637 -3.413842887659553, 51.712435161345624 -17.12513918469192, 62.24382297771981 -20.680417486159104 M0.728471094695851 -1.2517879365663975 C11.539530980321576 -4.266611397075462, 53.891250734976474 -16.068584449714958, 64.55387175684793 -19.315800192709986" stroke="#000000" stroke-width="1" fill="none"></path></g><g transform="translate(150.20888051237307 124.67187499999989) rotate(0 31.79418500105851 -10.407810051678666)"><path d="M40.10608882283361 -2.892167575033376 C46.78459726049112 -7.7398175236451, 52.32684552267423 -12.358029733430222, 64.11342244824392 -20.244375816490475 M40.466032467908576 -2.052476161466906 C48.685610367335265 -8.228191072092066, 57.236779332645 -12.442090587471833, 64.64768279759211 -18.96305243013424" stroke="#000000" stroke-width="1" fill="none"></path></g><g transform="translate(150.20888051237307 124.67187499999989) rotate(0 31.79418500105851 -10.407810051678666)"><path d="M34.39602982063909 -22.60295722378405 C42.52436111089094 -21.828094573723092, 49.682097448069314 -20.8697364513875, 64.11342244824392 -20.244375816490475 M34.75597346571406 -21.76326581021758 C44.8819757927948 -21.26261130043436, 55.35345601320367 -18.847708697510193, 64.64768279759211 -18.96305243013424" stroke="#000000" stroke-width="1" fill="none"></path></g></g><g transform="translate(264.24403676237307 196.26953125) rotate(0 43 12.5)"><text x="0" y="18" font-family="Virgil, Segoe UI Emoji" font-size="20px" fill="#000000" text-anchor="start" style="white-space: pre;" direction="ltr">ACTION</text></g><g transform="translate(298.64052113737307 63.486328125) rotate(0 9 22.5)"><text x="9" y="32" font-family="Virgil, Segoe UI Emoji" font-size="36px" fill="#000000" text-anchor="middle" style="white-space: pre;" direction="ltr">f</text></g><g><g transform="translate(388.20888051237307 84.34179687500006) rotate(0 29.73527463286655 0.9167249735491225)"><path d="M-0.32915801480412477 -0.7865326099097729 C9.305617345621188 -0.43013556127746905, 47.864457723746696 1.0136527684827645, 57.67344954535365 1.3728475160896778 M1.6988952980842442 1.414933824548498 C11.699863465170687 1.9943012125386548, 50.4794643160111 2.456867963283633, 59.79970728053711 2.619982557008043" stroke="#000000" stroke-width="1" fill="none"></path></g><g transform="translate(388.20888051237307 84.34179687500006) rotate(0 29.73527463286655 0.9167249735491225)"><path d="M30.703653717875923 10.401695146769223 C39.17698745001086 9.11311955538178, 47.19246555107502 7.495937898459689, 59.6588014346268 0.9538946203980596 M31.153249957129802 12.861760170742807 C41.6433663596595 9.278410906317367, 49.82845274458266 5.649752400206997, 60.713827025210485 2.0941776853147895" stroke="#000000" stroke-width="1" fill="none"></path></g><g transform="translate(388.20888051237307 84.34179687500006) rotate(0 29.73527463286655 0.9167249735491225)"><path d="M31.006988931979805 -9.713846532850168 C39.26441352038756 -5.195231153946297, 47.19230870012349 -1.004389797102955, 59.6588014346268 0.9538946203980596 M31.456585171233684 -7.253781508876584 C41.76387396855192 -4.531107702849299, 49.85387671678537 -1.8543365458326617, 60.713827025210485 2.0941776853147895" stroke="#000000" stroke-width="1" fill="none"></path></g></g><g transform="translate(26.68544301237307 199.85546875) rotate(0 51.5 10)"><text x="0" y="14" font-family="Virgil, Segoe UI Emoji" font-size="16px" fill="#000000" text-anchor="start" style="white-space: pre;" direction="ltr">OLD STATE</text></g><g transform="translate(522.5877867623731 193.58984375) rotate(0 50 10)"><text x="0" y="14" font-family="Virgil, Segoe UI Emoji" font-size="16px" fill="#000000" text-anchor="start" style="white-space: pre;" direction="ltr">NEW STATE</text></g><g transform="translate(476.44736948762693 73.142578125) rotate(0 105.5 12)"><text x="0" y="19" font-family="Cascadia, Segoe UI Emoji" font-size="20px" fill="#000000" text-anchor="start" style="white-space: pre;" direction="ltr">{posts: [newPost]}</text></g><g transform="translate(10 10) rotate(0 53.46875 17.818359375)"><path d="M-1.759012769907713 -1.305416215211153 C30.173994784581012 1.4089671259222087, 62.58935173482169 -0.9716255778970663, 108.096207190305 -0.04521678760647774 M-0.8457994405180216 0.4152067545801401 C39.69369459118462 0.7042480610648636, 77.54056739180815 -0.5513412452896591, 107.42977184616029 0.454286003485322 M105.88841586187482 -0.34043144062161446 C105.94122335401647 12.506496777461873, 107.55163058725469 26.157391517762157, 105.46023814752698 34.72983802482486 M107.06730551086366 -0.1581851001828909 C106.83225620079152 10.960978722623988, 106.11226624536626 20.946500348775594, 107.70207441411912 36.40826269425452 M106.01511161401868 35.026939045637846 C84.75938229135936 37.50906757639372, 61.34562150507699 37.311710041031475, -1.2334510795772076 35.719656478613615 M107.12551200948656 35.16442867554724 C77.68448946509743 35.383272516321156, 47.5956454943167 35.29601435620687, -0.7028481308370829 36.45459511317313 M-1.6551706306636333 34.89520598575473 C-1.5174501372762461 27.644799196783424, 1.1261525915674429 15.334833539403917, 1.7584256418049335 0.9641555659472942 M0.7589348014444113 36.17851927317679 C-0.692629932107593 23.785916117387387, 0.11454457169566012 10.873074085255212, 0.4166033323854208 -0.14054242335259914" stroke="#000000" stroke-width="1" fill="none"></path></g><g transform="translate(33.13671875 14.328125) rotate(0 29.5 12)"><text x="0" y="19" font-family="Cascadia, Segoe UI Emoji" font-size="20px" fill="#000000" text-anchor="start" style="white-space: pre;" direction="ltr">event</text></g><g><g transform="translate(136.3125 41.80859375) rotate(0 39.634190005809046 8.651593340011317)"><path d="M-1.0993429832160473 0.014857178181409747 C12.105164518704017 2.773175069938103, 66.6884939658145 14.175687373926241, 80.36772299483418 17.416839890927076 M0.5243632212560625 -1.0229467486124486 C13.433489310372 1.7591936751424027, 65.89770161641451 15.228189486584936, 79.19437272849493 18.326133428635075" stroke="#000000" stroke-width="1" fill="none"></path></g><g transform="translate(136.3125 41.80859375) rotate(0 39.634190005809046 8.651593340011317)"><path d="M49.393867197861546 20.844054826061615 C59.13434417889553 20.853850115433048, 74.32523057403827 17.795499986043225, 78.8953347243648 19.46263606336899 M49.13807221264171 21.364323279346713 C58.36417223584333 20.637796852879283, 67.87771434380198 19.951245305869385, 79.63204034234397 18.97952153583057" stroke="#000000" stroke-width="1" fill="none"></path></g><g transform="translate(136.3125 41.80859375) rotate(0 39.634190005809046 8.651593340011317)"><path d="M54.29340960119045 0.9163232285159069 C62.242257173726685 8.753812741692737, 75.49754750222162 13.568042482458887, 78.8953347243648 19.46263606336899 M54.03761461597061 1.436591681801005 C61.85068378444867 6.759979033836226, 69.86528898281311 12.169999361733094, 79.63204034234397 18.97952153583057" stroke="#000000" stroke-width="1" fill="none"></path></g></g></svg>