<svg version="1.1" xmlns="http://www.w3.org/2000/svg" viewBox="0 0 893 439">
  <!-- svg-source:excalidraw -->
  <defs>
    <style>
      @font-face {
        font-family: "Virgil";
        src: url("https://excalidraw.com/FG_Virgil.woff2");
      }
      @font-face {
        font-family: "Cascadia";
        src: url("https://excalidraw.com/Cascadia.woff2");
      }
    </style>
  </defs>
  <rect x="0" y="0" width="893" height="439" fill="#ffffff"></rect><g transform="translate(73 129) rotate(0 106.5 79)"><path d="M69.04345110191687 4.653777475774547 C81.16086278121958 0.08235456925963636, 98.38397162107574 -0.6767129026852245, 112.36718387239482 -0.03599990277463405 C126.35039612371389 0.6047130971359564, 140.23057296606777 3.809765768423099, 152.94272460983132 8.49805547523809 C165.65487625359486 13.186345182053081, 179.26387368057223 20.059107436261307, 188.64009373497606 28.09373833811531 C198.0163137893799 36.12836923996931, 205.36219996803916 46.90494776346637, 209.2000449362543 56.7058408863621 C213.03788990446944 66.50673400925783, 213.45553909776436 76.75623216846921, 211.6671635442669 86.89909707548969 C209.87878799076947 97.04196198251017, 205.40477864306885 108.25838835579513, 198.46979161526966 117.56303032848501 C191.53480458747046 126.86767230117489, 181.1227058376996 136.4312889498193, 170.0572413774717 142.72694891162894 C158.9917769172438 149.02260887343857, 145.5615891586067 152.8142636652873, 132.07700485390225 155.3369900993428 C118.59242054919783 157.8597165333983, 102.93500007349797 159.480603366578, 89.14973554924515 157.86330751596194 C75.36447102499233 156.24601166534586, 61.27876728580785 151.4719626671308, 49.36541770838535 145.63321499564628 C37.45206813096285 139.79446732416176, 25.50940614618834 131.57667117102042, 17.66963808471013 122.83082148705472 C9.82987002323192 114.08497180308902, 4.8326429454881055 103.42863437555995, 2.326809339516089 93.1581168918521 C-0.17902426645592806 82.88759940814425, -0.31474818133588167 71.2933149310912, 2.6346364488780267 61.20771658480761 C5.584021079091935 51.12211823852403, 11.694120682482948 40.958350344443886, 20.02311712079954 32.644526814150595 C28.352113559116134 24.330703283857304, 41.69028981680155 16.360485255627207, 52.60861507877758 11.324775403047852 C63.52694034075361 6.289065550468496, 77.25588529352868 4.0224235588150945, 85.53306869265572 2.430267698674456 C93.81025209178276 0.8381118385338173, 101.85201806254418 0.4609708147841829, 102.2717154735398 1.7718402422040214 M98.24165407171438 -1.0982766346401576 C110.94242365978616 -3.0942816148593453, 125.14076535432987 0.42204718802903685, 138.44544261209919 4.003270323510179 C151.75011986986848 7.5844934589913215, 167.16114915120204 13.729003135154048, 178.06971761833023 20.389062178246697 C188.97828608545842 27.049121221339345, 198.1330595082132 34.411344304543896, 203.89685341486825 43.963624582066075 C209.6606473215233 53.515904859588254, 212.36100626625952 67.09160658579759, 212.6524810582606 77.70274384337978 C212.9439558502617 88.31388110096196, 210.83936654259472 98.17388165726561, 205.64570216687474 107.63044812755918 C200.45203779115477 117.08701459785274, 191.6206900604848 126.94070710731174, 181.49049480394072 134.4421426651412 C171.36029954739664 141.94357822297067, 157.72342769042376 148.70652669150047, 144.86453062761018 152.639061474536 C132.0056335647966 156.5715962575715, 118.08649145592373 158.387934485032, 104.33711242705917 158.03735136335442 C90.5877333981946 157.68676824167684, 75.15200687915728 154.86449673487215, 62.36825645442277 150.53556274447055 C49.58450602968825 146.20662875406896, 37.21829387396457 139.5381208638421, 27.634609878652043 132.06374742094476 C18.050925883339513 124.58937397804742, 9.242608821920225 115.54813520177588, 4.866152482547591 105.68932208708651 C0.4896961431749576 95.83050897239714, 0.28137894512168526 83.65542762250706, 1.3758718424162453 72.91086873280854 C2.4703647397108055 62.16630984311002, 5.23322270660029 50.36299757836251, 11.43310986631495 41.221968748895385 C17.63299702602961 32.08093991942826, 27.500638284692762 24.383290749984138, 38.57519480070421 18.06469575600577 C49.64975131671566 11.7461007620274, 68.10354446737347 6.1565940357737965, 77.88044896238364 3.3103987850251713 C87.65735345739381 0.46420353427654604, 94.11882516813023 1.2395298681991942, 97.23662177076527 0.9875242515140172 C100.3544183734003 0.7355186348288403, 96.50461907426407 0.5969680159380744, 96.5872285781939 1.79836508491411" stroke="#000000" stroke-width="1" fill="none"></path></g><g transform="translate(117 188.5) rotate(0 64.5 18)"><text x="0" y="25" font-family="Virgil" font-size="28px" fill="#000000" text-anchor="start" style="white-space: pre;" direction="ltr">Your code</text></g><g transform="translate(549 129) rotate(0 129 109)"><path d="M159.82482581360512 4.056896624267964 C174.37507650251436 5.426602956632716, 189.9509938218357 11.910714238206658, 202.5795624638793 19.141899755363866 C215.20813110592292 26.373085272521074, 227.11058723251068 36.90645175635783, 235.59623766586674 47.44400972721121 C244.0818880992228 57.98156769806459, 249.8506107365739 70.005228367241, 253.49346506401565 82.36724758048415 C257.1363193914574 94.72926679372729, 259.1178784197069 108.7916041045192, 257.4533636305172 121.6161250066701 C255.78884884132742 134.440645908821, 250.4901751280714 148.0537087977101, 243.50637632887714 159.31437299338955 C236.52257752968288 170.575037189069, 226.61847923133104 180.6200557115762, 215.55057083535166 189.1801101807469 C204.4826624393723 197.7401646499176, 191.06017702439436 205.86373059516288, 177.09892595300093 210.67469980841372 C163.1376748816075 215.48566902166456, 147.1873533610355 217.7917592454845, 131.7830644069911 218.04592546025202 C116.37877545294667 218.30009167501953, 99.22076553617553 216.64792888163555, 84.67319222873445 212.19969709701874 C70.12561892129337 207.75146531240193, 55.800126257373 199.64369495486537, 44.49762456234457 191.35653475255108 C33.19512286731614 183.0693745502368, 24.184740702347224 173.45818180112283, 16.85818205856387 162.47673588313305 C9.531623414780515 151.49528996514326, 2.8498759218741205 138.1779597132727, 0.5382726996444376 125.46785924461237 C-1.7733305225852454 112.75775877595203, -0.4304448299150465 98.70977242223752, 2.9885627251857727 86.21613307117097 C6.407570280286592 73.72249372010442, 12.723462331391852 61.39095047195096, 21.052318030249353 50.506023138213045 C29.381173729106855 39.62109580447513, 40.87017415006233 28.539678272422137, 52.96169691833077 20.90656906874348 C65.0532196865992 13.273459865064822, 78.92804503100008 8.028345461872844, 93.60145463985998 4.707367916141095 C108.27486424871988 1.3863903704093468, 129.0432872880709 0.9786844812764434, 141.0021545714902 0.9807037943529906 C152.9610218549095 0.9827231074295378, 160.175956169652 3.627454592174362, 165.35465834037572 4.719483794600379 C170.53336051109943 5.811512997026395, 172.59696740179064 5.881558005865571, 172.0743675958325 7.532879008909092 M69.80863413573007 11.488035502507174 C81.71571674877359 4.366579796759986, 99.44723761476826 3.260980428789736, 114.12741364756069 1.9404230683774557 C128.80758968035312 0.6198657079651753, 143.41780089324564 0.5496394938365063, 157.88969033248463 3.564691340033491 C172.36157977172363 6.579743186230475, 188.1541826060194 12.97483499147339, 200.9587502829947 20.030734145559364 C213.76331795997004 27.08663329964534, 225.86655557733994 35.848591251500565, 234.71709639433655 45.900086264549344 C243.56763721133316 55.95158127759812, 250.0569555375565 67.73518474853053, 254.06199518497442 80.33970422385205 C258.0670348323924 92.94422369917358, 260.42404116660697 108.80224586533602, 258.74733427884416 121.52720311647852 C257.07062739108136 134.252160367621, 251.06268176540902 145.3274384715822, 244.00175385839773 156.68944773070703 C236.94082595138644 168.05145698983185, 227.40661921657022 180.78957901122268, 216.3817668367764 189.69925867122737 C205.35691445698257 198.60893833123205, 191.895468886673 205.46220531684858, 177.85263957963474 210.1475256907351 C163.80981027259648 214.83284606462163, 147.3827498268841 217.42729055041073, 132.12479099454683 217.81118091454647 C116.86683216220955 218.1950712786822, 100.8349154249916 216.43705996492724, 86.30488658561109 212.4508678755495 C71.77485774623057 208.46467578617177, 56.398214574469456 202.0713887648117, 44.94461795826368 193.89402837827996 C33.4910213420579 185.7166679917482, 24.927198767052932 174.66452958763904, 17.583306888376427 163.38670555635906 C10.239415009699922 152.10888152507908, 3.573619467508576 139.0045620004778, 0.8812666862046399 126.2270841906001 C-1.8110860950992964 113.44960638072239, -1.9733007358327512 99.33816431160867, 1.42919020055281 86.7218386970928 C4.831681136938371 74.10551308257695, 12.976306969275432 61.23832638213251, 21.296212304518008 50.52913050350491 C29.61611763976058 39.819934624877305, 43.41529849841399 29.023569422208684, 51.348622212008266 22.46666342532717 C59.28194592560254 15.909757428445655, 65.87721100060158 12.477278264736412, 68.89615458608367 11.187694522215821 C71.91509817156576 9.89811077969523, 68.28188355223863 12.697587555170395, 69.46228372490081 14.729160970203623" stroke="#000000" stroke-width="1" fill="none"></path></g><g transform="translate(616 179.5) rotate(0 59 18)"><text x="0" y="25" font-family="Virgil" font-size="28px" fill="#000000" text-anchor="start" style="white-space: pre;" direction="ltr">Hyperapp</text></g><g><g transform="translate(298.0271070122719 163.24258937597278) rotate(0 134.51228275094178 -2.30854873321951)"><path d="M0.30568690560758105 -0.1873794164508582 C45.44669366031883 -0.9417344318081936, 226.77508894701788 -3.6718302434931203, 271.99745848961163 -4.429718049988151 M-2.972892987728119 -2.7574106240272522 C41.60116866794724 -3.158641201257706, 223.87558187084886 -1.5645706665515895, 269.221037569493 -1.523953099250793" stroke="#000000" stroke-width="1" fill="none"></path></g><g transform="translate(298.0271070122719 163.24258937597278) rotate(0 134.51228275094178 -2.30854873321951)"><path d="M240.7104251851065 7.175350771244958 C248.70130624795783 3.1520396758584805, 257.89989470591746 0.15023907031332673, 271.0116168251633 -0.47270263776183086 M242.78153096891174 9.522640834521845 C250.2205766458645 6.433736616799223, 257.2196885000379 0.6019877580247863, 268.0561565207689 -3.4970560581237073" stroke="#000000" stroke-width="1" fill="none"></path></g><g transform="translate(298.0271070122719 163.24258937597278) rotate(0 134.51228275094178 -2.30854873321951)"><path d="M240.81546150071202 -13.345589016158623 C248.78464425609565 -10.368525307462008, 257.9474025086457 -6.370180453397595, 271.0116168251633 -0.47270263776183086 M242.88656728451727 -10.998298952881736 C250.30831204572965 -7.462162481700517, 257.27352073345844 -6.670251388187814, 268.0561565207689 -3.4970560581237073" stroke="#000000" stroke-width="1" fill="none"></path></g></g><g transform="translate(315 109.5) rotate(0 123 17.5)"><text x="0" y="28" font-family="Cascadia" font-size="28px" fill="#000000" text-anchor="start" style="white-space: pre;" direction="ltr">{ url, action }</text></g><g transform="translate(575 244.5) rotate(0 104 20.5)"><text x="0" y="30" font-family="Virgil" font-size="28px" fill="#000000" text-anchor="start" style="white-space: pre;" direction="ltr">🤷 ¯\_(ツ)_/¯</text></g><g transform="translate(10 10) rotate(0 436.5 209.5)"><path d="M0.8019777789711953 -1.3306312814354897 C258.0016958675348 -0.05873813854902954, 516.0245111851023 0.6611006237342956, 873.7528412833811 1.201590083539486 M-0.7277464754879475 0.5498817212879658 C193.30602908143777 -1.4820856781378398, 387.4519254574553 -2.0759150476828228, 873.3835065715016 0.24571294859051707 M872.2728131131755 -1.1002171093507558 C872.7743893037415 125.91136081795716, 872.8462793856895 251.605850627513, 873.8424970831406 418.5332250748544 M873.332583481288 -0.6261123508626804 C874.1632419296401 129.78983261566214, 874.6759125296978 257.5010161982163, 872.4283750608067 418.5453441939862 M873.4227729335429 420.27227504104377 C527.0642393478192 417.46660225557537, 183.3355412723496 419.3681457297727, -1.2108819946646692 419.71523554176093 M872.3650290124119 419.51545813158157 C592.9099616928958 416.7654288617149, 312.21286480184637 416.7162695971504, -0.6149792321026326 419.7374871738255 M0.057236477435711024 417.26727589920694 C0.4640819602334839 331.4981882156137, -0.64103140574943 245.19496995235437, -1.523777577641937 -1.4972295539475233 M0.11318955485693068 419.91670489890055 C0.6924543022931418 285.81095201581024, 0.08434347050569857 151.3683129187689, 1.0393627294653043 -0.32458838029540626" stroke="#000000" stroke-width="1" fill="none"></path></g></svg>