<svg version="1.1" xmlns="http://www.w3.org/2000/svg" viewBox="0 0 893 439">
  <!-- svg-source:excalidraw -->
  <defs>
    <style>
      @font-face {
        font-family: "Virgil";
        src: url("https://excalidraw.com/FG_Virgil.woff2");
      }
      @font-face {
        font-family: "Cascadia";
        src: url("https://excalidraw.com/Cascadia.woff2");
      }
    </style>
  </defs>
  <rect x="0" y="0" width="893" height="439" fill="#ffffff"></rect><g transform="translate(73 129) rotate(0 106.5 79)"><path d="M36.09986663224166 18.414232083310146 C45.52264432908644 11.039427922206844, 62.041331175198614 6.08036611797554, 75.38607193590762 3.170076196248104 C88.73081269661664 0.2597862745206676, 101.93691968939834 -0.2832122748366359, 116.16831119649572 0.9524925529455288 C130.3997027035931 2.1881973807276935, 147.95954820572106 5.276566406057014, 160.7744209784919 10.584305162941092 C173.58929375126272 15.89204391982517, 185.09512853318535 24.82313624741578, 193.05754783312074 32.79892509425 C201.01996713305613 40.77471394108423, 205.6614532178649 48.74653240921818, 208.54893677810423 58.439038243946435 C211.43642033834357 68.13154407867468, 212.66558243302782 80.17641735107779, 210.3824491945568 90.9539601026195 C208.0993159560858 101.73150285416122, 202.16247710567134 114.30517054626306, 194.85013734727812 123.10429475319671 C187.5377975888849 131.90341896013035, 177.8454889131816 137.83705388687366, 166.50841064419745 143.74870534422143 C155.1713323752133 149.6603568015692, 140.50360777486446 156.42555734473058, 126.82766773337315 158.5742034972833 C113.15172769188183 160.722849649836, 98.38984135791893 159.2962916512163, 84.45277039524954 156.64058225953772 C70.51569943258016 153.98487286785914, 54.61400019627689 148.94357869058325, 43.205241957356876 142.63994714721176 C31.79648371843686 136.33631560384026, 23.056909302149226 127.83126026610681, 16.000220961729454 118.8187929993088 C8.943532621309682 109.80632573251079, 2.9934355764684946 98.74862087109345, 0.8651119148382378 88.56514354642368 C-1.263211746792019 78.38166622175392, -0.7284913303594962 67.52860207956543, 3.2302789919479125 57.717929051290184 C7.189049314255321 47.90725602301494, 9.20181928697442 38.9635539640467, 24.61773384868269 29.701105376772205 C40.03364841039096 20.438656789497706, 73.56914490893294 5.25339804094518, 95.72576636219753 2.143237527643194 C117.88238781546212 -0.9669229856587926, 157.23739489589377 9.68978181095884, 157.55746256827024 11.040142296960283 M90.05883757391584 -1.5703793623646902 C102.01275639925122 -4.33655208755841, 114.38651554584757 -0.8567623225279788, 127.99043142403912 2.1577790219991186 C141.59434730223066 5.1723203665262165, 159.5971074460823 10.823052228332443, 171.68233284306513 16.516868704797893 C183.76755824004795 22.210685181263344, 193.84442873448086 27.076278635005153, 200.50178380593604 36.32067788079183 C207.15913887739123 45.5650771265785, 210.25729382683622 61.24592988365597, 211.62646327179615 71.98326417951793 C212.9956327167561 82.72059847537989, 212.78976006742943 91.23023131739006, 208.71680047569563 100.7446836559636 C204.64384088396184 110.25913599453713, 196.6370203614958 120.84575637701215, 187.18870572139338 129.06997821095916 C177.74039108129097 137.29420004490618, 164.19934800444955 145.27735454623834, 152.0269126350811 150.09001465964568 C139.85447726571263 154.902674773053, 127.58467848245168 157.47515172996688, 114.15409350518266 157.9459388914031 C100.72350852791364 158.41672605283932, 84.71570290140498 156.36754054958257, 71.44340277146695 152.91473762826305 C58.17110264152892 149.46193470694354, 45.17188749155036 143.78910666459285, 34.52029272555447 137.22912136348606 C23.86869795955858 130.66913606237927, 12.940091077204894 123.06895685055811, 7.53383417549162 113.5548258216223 C2.1275772737783454 104.0406947926865, 2.2623683091261477 91.28033363736469, 2.0827513152748196 80.1443351898712 C1.9031343214234913 69.00833674237771, 1.753686701883292 56.207675994706506, 6.45613221238365 46.73883513666135 C11.158577722884008 37.269994278616196, 19.91823825561098 30.133395561727703, 30.297424378276972 23.33129004160029 C40.676610500942964 16.529184521472878, 59.106024182756144 9.381213287839648, 68.73124894837959 5.926202015896877 C78.35647371400303 2.471190743954105, 85.04590179703669 3.1505259794922154, 88.04877297201762 2.6012224099436594 C91.05164414699854 2.0519188403951034, 86.58451581424693 1.554689359102061, 86.74847599826512 2.630380598605541" stroke="#000000" stroke-width="1" fill="none"></path></g><g transform="translate(117 188.5) rotate(0 64.5 18)"><text x="0" y="25" font-family="Virgil, Segoe UI Emoji" font-size="28px" fill="#000000" text-anchor="start" style="white-space: pre;" direction="ltr">Your code</text></g><g transform="translate(549 129) rotate(0 129 109)"><path d="M188.82484377661496 14.332489667579054 C202.66796852169512 18.696621124436874, 216.02784688505872 27.03954830765634, 226.36025361919508 36.555219671961396 C236.69266035333143 46.07089103626645, 245.74900073700778 59.42782719271429, 250.81928418143315 71.42651785340938 C255.88956762585852 83.42520851410447, 256.84412850942624 95.86304816415796, 256.78195428574725 108.54736363613192 C256.71978006206825 121.23167910810588, 255.62572694621701 135.33914279242907, 250.446238839359 147.5324106852531 C245.266750732501 159.72567857807712, 235.78785162692256 172.3282414670677, 225.70502564459932 181.70697099307614 C215.62219966227607 191.08570051908458, 202.9643370498074 197.82512341444067, 189.94928294541955 203.80478784130383 C176.9342288410317 209.784452268167, 162.35257522032236 215.66963047877465, 147.61470101827234 217.5849575542552 C132.87682681622232 219.50028462973575, 116.77650298804691 218.07080539975578, 101.52203773311935 215.29675029418706 C86.26757247819178 212.52269518861834, 69.25834607304827 208.27342861117614, 56.087909488706956 200.94062692084293 C42.917472904365646 193.60782523050972, 30.855627687933392 181.66549829878917, 22.499418227071487 171.29994015218784 C14.143208766209584 160.9343820055865, 9.862030632603606 150.6542065815798, 5.950652723535541 138.74727804123492 C2.0392748144674755 126.84034950089003, -2.199887126621168 112.66771566531548, -0.9688492273369036 99.8583689101185 C0.2621886719473612 87.04902215492152, 6.284455298966454 73.33337497397673, 13.33688011924113 61.89119751005303 C20.389304939515807 50.44902004612933, 30.140967402391844 40.236516120238306, 41.34569969431115 31.20530412657628 C52.55043198623046 22.174092132914254, 66.80182398324548 12.67502600814353, 80.56527387075695 7.703925548080875 C94.32872375826842 2.732825088018221, 108.6267507870296 1.492107587699157, 123.92639901938 1.3787013662003602 C139.2260472517304 1.2652951447015635, 158.65352340617645 3.4324829187723154, 172.3631632648594 7.023488219088094 C186.07280312354234 10.614493519403872, 197.6427253964454 18.226971175820147, 206.18423817147772 22.92473316809503 C214.72575094651003 27.622495160369915, 224.73202155181494 33.948847592965265, 223.61223991505324 35.2100601727374 M24.513313652588252 45.24084293311208 C31.19440632032461 34.35642870391231, 45.774382709551055 28.643946863044835, 57.4691540602941 21.852112044146608 C69.16392541103716 15.060277225248381, 80.53614984499059 7.6080977236835, 94.68194175704653 4.489834019722721 C108.82773366910247 1.371570315761943, 126.7634471502501 2.0010728571228427, 142.34390553262972 3.142529820381938 C157.92436391500934 4.2839867836410335, 174.43417385811574 6.361058886471066, 188.16469205132427 11.338575799277294 C201.8952102445328 16.31609271208352, 214.11912097041704 23.135395140855742, 224.72701469188078 33.007631297219305 C235.33490841334452 42.87986745358287, 246.33312572316703 58.699250260998085, 251.81205438010676 70.57199273745867 C257.2909830370465 82.44473521391926, 257.7906324154941 91.59278179931641, 257.60058663351913 104.24408615598281 C257.41054085154417 116.89539051264921, 255.48060908783847 133.93425301939146, 250.67177968825712 146.4798188774571 C245.86295028867576 159.02538473552272, 238.49898444358266 169.9439685195875, 228.74761023603105 179.51748130437653 C218.99623602847944 189.09099408916558, 205.60793092325918 197.49964877677212, 192.16353444294754 203.92089558619136 C178.7191379626359 210.3421423956106, 163.5264233387215 215.63982343321828, 148.08123135416128 218.04496216089206 C132.63603936960106 220.45010088856583, 113.99103674169373 220.93850335572324, 99.49238253558627 218.35172795223394 C84.99372832947881 215.76495254874465, 73.65547417541038 209.69093369531254, 61.08930611751656 202.52430973995627 C48.52313805962274 195.3576857846, 33.918040074391136 185.87450850046037, 24.09537418822336 175.35198422009628 C14.272708302055584 164.8294599397322, 5.775534913338134 151.87782183485808, 2.1533108005098995 139.3891640577718 C-1.4689133123183353 126.90050628068552, 0.7986512633133387 113.02062755069717, 2.362029511253951 100.42003755757855 C3.925407759194563 87.81944756445994, 8.145859447813317 73.08227019656833, 11.533580288153573 63.785624099060136 C14.921301128493829 54.488978001551935, 20.686835947436546 47.08813191738221, 22.688354553295483 44.64016097252936 C24.68987315915442 42.1921900276765, 21.41349233433495 47.22239779867817, 23.54269192330719 49.097798429943" stroke="#000000" stroke-width="1" fill="none"></path></g><g transform="translate(616 179.5) rotate(0 59 18)"><text x="0" y="25" font-family="Virgil, Segoe UI Emoji" font-size="28px" fill="#000000" text-anchor="start" style="white-space: pre;" direction="ltr">Hyperapp</text></g><g><g transform="translate(298.0271070122719 163.24258937597278) rotate(0 134.51228275094178 -2.30854873321951)"><path d="M0.30568690560758105 -0.1873794164508582 C45.44669366031883 -0.9417344318081936, 226.77508894701788 -3.6718302434931203, 271.99745848961163 -4.429718049988151 M-2.972892987728119 -2.7574106240272522 C41.60116866794724 -3.158641201257706, 223.87558187084886 -1.5645706665515895, 269.221037569493 -1.523953099250793" stroke="#000000" stroke-width="1" fill="none"></path></g><g transform="translate(298.0271070122719 163.24258937597278) rotate(0 134.51228275094178 -2.30854873321951)"><path d="M240.7104251851065 7.175350771244958 C248.70130624795783 3.1520396758584805, 257.89989470591746 0.15023907031332673, 271.0116168251633 -0.47270263776183086 M242.78153096891174 9.522640834521845 C250.2205766458645 6.433736616799223, 257.2196885000379 0.6019877580247863, 268.0561565207689 -3.4970560581237073" stroke="#000000" stroke-width="1" fill="none"></path></g><g transform="translate(298.0271070122719 163.24258937597278) rotate(0 134.51228275094178 -2.30854873321951)"><path d="M240.81546150071202 -13.345589016158623 C248.78464425609565 -10.368525307462008, 257.9474025086457 -6.370180453397595, 271.0116168251633 -0.47270263776183086 M242.88656728451727 -10.998298952881736 C250.30831204572965 -7.462162481700517, 257.27352073345844 -6.670251388187814, 268.0561565207689 -3.4970560581237073" stroke="#000000" stroke-width="1" fill="none"></path></g></g><g transform="translate(315 109.5) rotate(0 123 17.5)"><text x="0" y="28" font-family="Cascadia, Segoe UI Emoji" font-size="28px" fill="#000000" text-anchor="start" style="white-space: pre;" direction="ltr">{ url, action }</text></g><g transform="translate(593.5185185185185 242.64814814814815) rotate(0 83 20.5)"><text x="0" y="30" font-family="Virgil, Segoe UI Emoji" font-size="28px" fill="#000000" text-anchor="start" style="white-space: pre;" direction="ltr">¯\_(ツ)_/¯</text></g><g transform="translate(10 10) rotate(0 436.5 209.5)"><path d="M0.8019777789711953 -1.3306312814354897 C258.0016958675348 -0.05873813854902954, 516.0245111851023 0.6611006237342956, 873.7528412833811 1.201590083539486 M-0.7277464754879475 0.5498817212879658 C193.30602908143777 -1.4820856781378398, 387.4519254574553 -2.0759150476828228, 873.3835065715016 0.24571294859051707 M872.2728131131755 -1.1002171093507558 C872.7743893037415 125.91136081795716, 872.8462793856895 251.605850627513, 873.8424970831406 418.5332250748544 M873.332583481288 -0.6261123508626804 C874.1632419296401 129.78983261566214, 874.6759125296978 257.5010161982163, 872.4283750608067 418.5453441939862 M873.4227729335429 420.27227504104377 C527.0642393478192 417.46660225557537, 183.3355412723496 419.3681457297727, -1.2108819946646692 419.71523554176093 M872.3650290124119 419.51545813158157 C592.9099616928958 416.7654288617149, 312.21286480184637 416.7162695971504, -0.6149792321026326 419.7374871738255 M0.057236477435711024 417.26727589920694 C0.4640819602334839 331.4981882156137, -0.64103140574943 245.19496995235437, -1.523777577641937 -1.4972295539475233 M0.11318955485693068 419.91670489890055 C0.6924543022931418 285.81095201581024, 0.08434347050569857 151.3683129187689, 1.0393627294653043 -0.32458838029540626" stroke="#000000" stroke-width="1" fill="none"></path></g></svg>