<svg version="1.1" xmlns="http://www.w3.org/2000/svg" viewBox="0 0 567.44140625 428.859375">
  <!-- svg-source:excalidraw -->
  <defs>
    <style>
      @font-face {
        font-family: "Virgil";
        src: url("https://excalidraw.com/FG_Virgil.woff2");
      }
      @font-face {
        font-family: "Cascadia";
        src: url("https://excalidraw.com/Cascadia.woff2");
      }
    </style>
  </defs>
  <rect x="0" y="0" width="567.44140625" height="428.859375" fill="#ffffff"></rect><g transform="translate(10 11.28515625) rotate(0 62.220703125 62.2421875)"><path d="M66.05967037571732 -0.0211365339807017 C75.48741870680279 -0.3751165261973976, 86.60081487267382 4.117757140290951, 94.96430914664077 9.301593520708991 C103.32780342060772 14.48542990112703, 111.2035759517047 22.370219376585148, 116.24063601951903 31.081881748527536 C121.27769608733335 39.793544120469925, 125.05601568971161 51.56708092556806, 125.18666955352668 61.57156775236332 C125.31732341734175 71.57605457915858, 121.79151774900434 82.42150523760652, 117.02455920240943 91.10880270929913 C112.25760065581453 99.79610018099173, 104.57471227658368 108.11408241143538, 96.58491827395721 113.69535258251892 C88.59512427133075 119.27662275360247, 78.83227669215003 123.62454612776378, 69.08579518665067 124.59642373580041 C59.33931368115131 125.56830134383705, 47.44542245820508 123.44490943655292, 38.10602924096106 119.52661823073875 C28.766636023717034 115.60832702492458, 19.313676538217607 108.95801411321668, 13.049435883186547 101.08667650091536 C6.785195228155488 93.21533888861404, 2.019737357457248 82.26190065960574, 0.520585310774706 72.29859255693087 C-0.9785667359078356 62.335284454256, 0.7152266392812656 50.770434108331926, 4.0545236030912974 41.30682788486611 C7.393820566901329 31.843221661400293, 13.2932246394917 22.138023155565755, 20.556367093634897 15.516955216135976 C27.819509547778093 8.895887276706198, 37.945528289823365 3.8475707277490643, 47.63337832795047 1.5804202482874317 C57.32122836607757 -0.686730231174201, 71.38307137036911 0.8379950367830016, 78.6834673223975 1.9140523393661795 C85.9838632744259 2.990109641949357, 91.77779848946074 6.9907330193024215, 91.43575404012087 8.0367640637865 M49.777715862950416 2.3363049172696506 C59.071379463515285 -0.5219400459364429, 70.40691707205511 -0.36705314201526695, 79.63696024445643 1.9910409877483701 C88.86700341685776 4.349135117512008, 98.16632209627231 9.542311459822006, 105.15797489735837 16.484869695851472 C112.14962769844443 23.42742793188094, 118.79665107352076 33.762947209853046, 121.58687705097282 43.646390403925174 C124.37710302842487 53.5298335979973, 123.91863497901562 65.88631776316834, 121.89933076207069 75.78552886028426 C119.88002654512576 85.68473995740018, 115.47391471880479 95.67319617591889, 109.4710517493032 103.0416569866207 C103.46818877980161 110.4101177973225, 95.32158960520283 116.65269978530742, 85.88215294506116 119.9962937244951 C76.4427162849195 123.33988766368279, 62.91857659944981 124.18036527832463, 52.83443178845319 123.10322062174679 C42.75028697745657 122.02607596516894, 33.21523359739159 119.02143503850225, 25.377284079081463 113.53342578502807 C17.53933456077134 108.0454165315539, 10.08930085693844 99.14145008778614, 5.806734678592456 90.17516510090172 C1.5241685002464704 81.2088801140173, -0.7460612728176024 70.07978865094483, -0.31811299099445023 59.73571586372159 C0.10983529082870191 49.39164307649834, 3.0819644758644555 36.50569700645198, 8.374424369531368 28.110728377562253 C13.66688426319828 19.715759748672525, 24.820934185345493 13.999340404338163, 31.436646371007026 9.36590409038321 C38.05235855666856 4.7324677764282574, 45.183564534945305 1.548499058054966, 48.06869748350056 0.3101104938325321 C50.95383043205581 -0.9282780703899018, 48.31383891481656 0.6737007354774132, 48.74744406233853 1.9355727050486067" stroke="#000000" stroke-width="1" fill="none"></path></g><g transform="translate(433.69921875 10) rotate(0 61.87109375 64.064453125)"><path d="M67.30458937070782 0.3295965102148486 C76.55950671655116 0.28772115047520685, 88.1846940951905 5.255529301221462, 96.26374068130397 10.885405802386899 C104.34278726741745 16.515282303552336, 111.21859814544979 25.127549318180826, 115.77886888738865 34.108855517207466 C120.33913962932752 43.09016171623411, 123.62484164377778 54.49644377124724, 123.62536513293719 64.77324299654673 C123.6258886220966 75.05004222184621, 120.6114507909596 86.71874988839132, 115.78200982234512 95.76965086900438 C110.95256885373064 104.82055184961744, 102.87991369411459 113.58583611223735, 94.64871932125035 119.0786488802251 C86.41752494838612 124.57146164821286, 76.24462355297199 128.35643244231332, 66.39484358515966 128.7265274769309 C56.54506361734734 129.09662251154847, 44.427091421684736 125.80467280602575, 35.550039514376394 121.29921908793051 C26.672987607068052 116.79376536983527, 18.937335927898623 109.58175858362983, 13.132532141309625 101.69380516835943 C7.327728354720627 93.80585175308903, 2.428037467871863 84.02166117115397, 0.7212167948424053 73.97149859630805 C-0.985603878187052 63.92133602146213, -0.3794950056860671 51.069225969016166, 2.8916081031328815 41.392829719283924 C6.16271121195183 31.71643346955168, 12.843951909773054 22.554162188703494, 20.347835447756097 15.913121097914583 C27.85171898573914 9.272080007125673, 38.56076456163436 3.89922761839957, 47.91490933103114 1.546583174550456 C57.26905410042792 -0.8060612692986582, 70.13382907233004 1.0843736652105513, 76.4727040641368 1.797254434819898 C82.81157905594357 2.5101352044292446, 86.18808499729269 4.801432339123103, 85.9481592818717 5.823867792206535 M52.191085743815194 0.4101684088525275 C61.3210198793634 -1.7519601101720697, 73.29555253776422 0.2532259719920531, 82.89124268750241 3.63539606009833 C92.4869328372406 7.017566148204606, 103.15399613318773 12.907428292512414, 109.76522664224433 20.70318893749019 C116.37645715130093 28.498949582467965, 120.39190317764277 40.10383468045745, 122.55862574184201 50.40995992996499 C124.72534830604124 60.71608517947253, 125.65641068223471 72.90542470365871, 122.7655620274397 82.53994043453542 C119.87471337264469 92.17445616541214, 112.20775690485691 101.23104927201359, 105.21353381307193 108.21705431522531 C98.21931072128696 115.20305935843703, 89.93697981154308 121.4137879933827, 80.80022347672985 124.45597069380572 C71.66346714191663 127.49815339422875, 60.00905341534879 128.15392131080876, 50.39299580419256 126.47015051776351 C40.77693819303633 124.78637972471826, 30.785456368303436 120.94800192555189, 23.1038778097925 114.35334593553421 C15.422299251281565 107.75868994551652, 7.854059996037806 96.70194166084926, 4.303524453126954 86.9022145776574 C0.7529889102161014 77.10248749446555, 0.5889875824972453 65.43294943629998, 1.8006645523273832 55.5549834363831 C3.012341522157521 45.67701743646622, 6.155863825249768 35.68504130778671, 11.573586272107782 27.63441857815615 C16.991308718965797 19.58379584852559, 27.509264133318197 11.870435526543837, 34.306999233475466 7.251247058599738 C41.104734333632734 2.632058590655639, 48.98691800840869 0.9096230847337878, 52.3599968730514 -0.08071222950844259 C55.73307573769411 -1.071047543750673, 54.23153591779138 0.19714247438460575, 54.54547242133173 1.3092351731463552" stroke="#000000" stroke-width="1" fill="none"></path></g><g transform="translate(221.16015625 301.38671875) rotate(0 61.38671875 58.736328125)"><path d="M79.12486975160235 3.2358436743479047 C88.2001454181652 5.123921189686736, 97.91067472037953 11.732764535352533, 104.82704758208533 18.403174057940312 C111.74342044379112 25.07358358052809, 118.09482079887955 34.317153309214426, 120.62310692183715 43.258300809874584 C123.15139304479474 52.19944831053474, 122.49747390081599 62.874769796748154, 119.99676431983089 72.05005906190125 C117.49605473884579 81.22534832705435, 112.1931171674277 91.22654010387802, 105.61884943592656 98.31003640079318 C99.04458170442543 105.39353269770834, 90.07277391801092 111.6469031529733, 80.55115793082405 114.55103684339218 C71.02954194363717 117.45517053381107, 58.36729686302864 117.4781926636002, 48.489153512805274 115.73483854330651 C38.611010162581906 113.99148442301282, 28.67159809291913 110.20808551753561, 21.282297829483838 104.09091212163008 C13.892997566048546 97.97373872572456, 7.514722916489463 88.02375957297465, 4.153351932193516 79.03179816787335 C0.7919809478975686 70.03983676277204, -0.3645505406775946 59.406231791121456, 1.1140719237081527 50.13914369102226 C2.5926943880939 40.87205559092307, 7.113275078014342 30.904256001261597, 13.025086718508 23.429269567278162 C18.936898359001656 15.954283133294727, 27.372712123862826 9.101176104105642, 36.5849417666701 5.2892250871216575 C45.79717140947737 1.4772740701376734, 60.50814670039477 0.747447620867573, 68.29846457535164 0.5575634653742583 C76.08878245030851 0.36767930988094355, 80.45049281619724 3.118882693859727, 83.32684901641134 4.149920154161769 C86.20320521662545 5.180957614463812, 86.01531820008964 5.934023112516887, 85.55660177663627 6.7437882271865135 M56.16476663038442 1.287618056719019 C65.73788294826335 -0.19266799265301526, 78.56820691725811 2.944604334323042, 87.85892170423045 6.594409890417197 C97.1496364912028 10.244215446511351, 106.27883342902808 15.501146241565671, 111.90905535221847 23.186451393283946 C117.53927727540886 30.87175654500222, 120.60232586123229 43.11501636373751, 121.6402532433728 52.706240800726846 C122.6781806255133 62.29746523771618, 121.96117133087024 72.13171799563706, 118.13661964506156 80.73379801521995 C114.31206795925287 89.33587803480283, 106.50181376593886 98.16898271885046, 98.6929431285207 104.31872091822419 C90.88407249110253 110.46845911759792, 80.88047609181504 115.80761790440633, 71.28339582055258 117.63222721146232 C61.68631554929013 119.45683651851832, 50.569403885523805 118.57227505431787, 41.11046150094596 115.26637676056015 C31.651519116368114 111.96047846680243, 20.914148131506806 105.27261988875364, 14.529741513085504 97.79683744891598 C8.145334894664202 90.32105500907832, 4.861789522293895 79.93703068571813, 2.8040217904181475 70.41168212153417 C0.7462540585423993 60.886333557350206, -0.6368303434716545 49.80029662024962, 2.1831351218310147 40.64474606381221 C5.003100587133684 31.489195507374795, 12.408217741770297 22.0458703316307, 19.723814582234162 15.478378782909715 C27.039411422698027 8.910887234188731, 39.7736109567591 3.94615456258841, 46.0767161646142 1.2397967714862972 C52.379821372469294 -1.4665610196158156, 55.69024776455083 -1.0251790910981253, 57.54244582936474 -0.7597679637029628 C59.39464389417864 -0.4943568363078003, 57.37300775896679 1.6471290034589892, 57.18990455349762 2.8322635358572725" stroke="#000000" stroke-width="1" fill="none"></path></g><g transform="translate(58.123046875 46.80859375) rotate(0 10.5 21.5)"><text x="10.5" y="35" font-family="Cascadia, Segoe UI Emoji" font-size="36px" fill="#000000" text-anchor="middle" style="white-space: pre;" direction="ltr">S</text></g><g transform="translate(485.0703125 52.564453125) rotate(0 10.5 21.5)"><text x="10.5" y="35" font-family="Cascadia, Segoe UI Emoji" font-size="36px" fill="#000000" text-anchor="middle" style="white-space: pre;" direction="ltr">A</text></g><g transform="translate(272.046875 338.623046875) rotate(0 10.5 21.5)"><text x="10.5" y="35" font-family="Cascadia, Segoe UI Emoji" font-size="36px" fill="#000000" text-anchor="middle" style="white-space: pre;" direction="ltr">V</text></g><g><g transform="translate(423.68359375 69.78515625) rotate(0 -140.16867502809504 0.9283819969789988)"><path d="M-0.7020643182098865 1.0532956905663011 C-47.53053969020645 1.0182234195371467, -233.69832895075282 0.4612650858859221, -280.32856442406774 0.46434207633137703 M1.1302131853904576 0.5606719827745108 C-45.94430921759146 0.5693670176559437, -234.35895137822564 1.1360685441984484, -281.4675632415805 1.3924219176266341" stroke="#000000" stroke-width="1" fill="none"></path></g><g transform="translate(423.68359375 69.78515625) rotate(0 -140.16867502809504 0.9283819969789988)"><path d="M-251.56247274186984 -9.586828436200378 C-265.1456243394476 -6.342584870381927, -274.08482299830075 -3.081550698044304, -280.6402026003692 2.917933826902881 M-252.44170293007568 -8.907243320216296 C-264.2424376500844 -4.760570869464409, -276.6093524889791 -0.06053865446707718, -281.79734999486243 2.2560542445722964" stroke="#000000" stroke-width="1" fill="none"></path></g><g transform="translate(423.68359375 69.78515625) rotate(0 -140.16867502809504 0.9283819969789988)"><path d="M-251.48056002360505 10.9342166807625 C-265.20806225364146 6.923299387833756, -274.17621902299527 2.9296519347300283, -280.6402026003692 2.917933826902881 M-252.3597902118109 11.613801796746582 C-264.18546629609136 7.5668537556464255, -276.58508631408915 4.073476324985103, -281.79734999486243 2.2560542445722964" stroke="#000000" stroke-width="1" fill="none"></path></g></g><g><g transform="translate(97.90234375 139.73828125) rotate(0 63.9740031890571 88.64666016922331)"><path d="M-0.937266869097948 -0.4090382270514965 C20.471266934523985 29.01200369869669, 107.13675149803362 147.7605980383853, 128.88527324721218 177.5397599287331 M0.7715292952861637 -1.6693872415926307 C21.994188072622446 28.458260849624253, 106.59325724367363 149.31944582801003, 127.99799233212136 178.96270758003928" stroke="#000000" stroke-width="1" fill="none"></path></g><g transform="translate(97.90234375 139.73828125) rotate(0 63.9740031890571 88.64666016922331)"><path d="M102.63730369961084 162.0983831300743 C111.39606478791896 169.13962835435038, 120.90274140046431 172.71692651918747, 126.41160542427562 178.48027895853855 M103.01121932534696 161.37955303819552 C112.47604299609539 167.89109453902375, 118.75726073741475 174.2082156083847, 127.55045433810912 179.8561986153666" stroke="#000000" stroke-width="1" fill="none"></path></g><g transform="translate(97.90234375 139.73828125) rotate(0 63.9740031890571 88.64666016922331)"><path d="M119.3752577929088 150.22568776817397 C122.60745405009926 161.12747434639755, 126.48729019674249 168.69604661374987, 126.41160542427562 178.48027895853855 M119.74917341864492 149.5068576762952 C123.55774668412964 160.03324016790313, 124.24178292032585 170.3205974157824, 127.55045433810912 179.8561986153666" stroke="#000000" stroke-width="1" fill="none"></path></g></g><g><g transform="translate(339.421875 313.08203125) rotate(0 61.29030135884415 -87.8136660389602)"><path d="M0.5414090685546398 0.7571482010185717 C20.97940149034063 -28.618862892438965, 102.83503803138932 -147.22020243133107, 123.21409261748195 -176.384480278939 M-0.6334898997936398 0.10904706121422358 C19.691515145242832 -29.15062710810763, 102.33525358204109 -146.08535691955748, 122.84397312178277 -175.4426571741607" stroke="#000000" stroke-width="1" fill="none"></path></g><g transform="translate(339.421875 313.08203125) rotate(0 61.29030135884415 -87.8136660389602)"><path d="M116.28578446805136 -144.6451333086474 C115.8920662304457 -155.44787900787733, 122.2133375687067 -166.86397447071613, 122.02204630075954 -174.67223478629253 M115.34475511125879 -147.07321504275333 C118.09281602554441 -156.09126765764412, 120.9460054267395 -166.64246054691412, 123.50767050794326 -176.10612982100807" stroke="#000000" stroke-width="1" fill="none"></path></g><g transform="translate(339.421875 313.08203125) rotate(0 61.29030135884415 -87.8136660389602)"><path d="M99.4983872912722 -156.44781514011717 C104.94823572645986 -163.20899658653022, 117.12570395633614 -170.50778738764424, 122.02204630075954 -174.67223478629253 M98.55735793447963 -158.87589687422312 C107.17640511449943 -163.8020320756766, 115.95477751457392 -170.18741837845917, 123.50767050794326 -176.10612982100807" stroke="#000000" stroke-width="1" fill="none"></path></g></g><g transform="translate(233.7578125 21.34765625) rotate(0 45 17.5)"><text x="0" y="25" font-family="Virgil, Segoe UI Emoji" font-size="28px" fill="#000000" text-anchor="start" style="white-space: pre;" direction="ltr">change</text></g><g transform="translate(15.14453125 214.89453125) rotate(0 62 17.5)"><text x="0" y="25" font-family="Virgil, Segoe UI Emoji" font-size="28px" fill="#000000" text-anchor="start" style="white-space: pre;" direction="ltr">re-render</text></g><g transform="translate(409.0625 222.90234375) rotate(0 46 17.5)"><text x="0" y="25" font-family="Virgil, Segoe UI Emoji" font-size="28px" fill="#000000" text-anchor="start" style="white-space: pre;" direction="ltr">trigger</text></g></svg>