<svg version="1.1" xmlns="http://www.w3.org/2000/svg" viewBox="0 0 868.38755111313 314.3705215440741">
  <!-- svg-source:excalidraw -->
  <defs>
    <style>
      @font-face {
        font-family: "Virgil";
        src: url("https://excalidraw.com/FG_Virgil.woff2");
      }
      @font-face {
        font-family: "Cascadia";
        src: url("https://excalidraw.com/Cascadia.woff2");
      }
    </style>
  </defs>
  <rect x="0" y="0" width="868.38755111313" height="314.3705215440741" fill="#ffffff"></rect><g transform="translate(32.552519417580925 10) rotate(0 55.246933212176316 145.23678318664906)"><text x="0" y="202.47356637329818" font-family="Virgil, Segoe UI Emoji" font-size="192.1897210094724px" fill="#000000" text-anchor="start" style="white-space: pre;" direction="ltr">𝞴</text></g><g transform="translate(10 258.3705215440741) rotate(0 86.5 23)"><text x="0" y="32" font-family="Virgil, Segoe UI Emoji" font-size="36px" fill="#000000" text-anchor="start" style="white-space: pre;" direction="ltr">Functional</text></g><g transform="translate(284.55701953657433 255.32645066719988) rotate(0 94.50000000000006 23)"><text x="0" y="32" font-family="Virgil, Segoe UI Emoji" font-size="36px" fill="#000000" text-anchor="start" style="white-space: pre;" direction="ltr">Lightweight</text></g><g><g transform="translate(278.96865061335745 240.47683685529614) rotate(0 52.50835688079309 -51.62113626526002)"><path d="M-1.076310272142291 0.6268534194678068 C16.756901392472837 -16.584926953915755, 88.1842878482394 -86.70149268658955, 106.09302403372855 -103.86912594998776 M0.5594881056435406 -0.08965248065069309 C18.2825984763372 -17.100991737343616, 87.45483945445122 -85.30490923624609, 104.95671941361533 -102.66944343541337" stroke="#000000" stroke-width="1" fill="none"></path></g></g><g><g transform="translate(320.90413448432514 201.7671594359415) rotate(0 72.87367928456842 -65.66456918686549)"><path d="M-1.1627078879624604 -1.0724598359316586 C-2.726437198382704 -7.987637540501782, -17.051784458504045 -24.502650214295127, -10.386159611937932 -41.536434309869584 C-3.720534765371818 -58.57021840544404, 25.165054149617312 -89.73135887848679, 38.831041191434224 -103.27516440937839 C52.497028233251136 -116.81896994027, 64.15622172787867 -119.73925313926748, 71.60976263896355 -122.7992674952192 C79.06330355004842 -125.85928185117092, 80.57623054631549 -120.46132031707586, 83.55228665794348 -121.63525054508872 C86.52834276957148 -122.80918077310159, 78.7983722768443 -128.27074917724292, 89.46609930873151 -129.8428488632964 C100.13382634061873 -131.4149485493499, 136.77829326208172 -133.55218261816407, 147.55864884926677 -131.06784866140976 C158.33900443645183 -128.58351470465544, 152.79068806372896 -123.81905638097686, 154.1482328318419 -114.93684512277055 C155.50577759995485 -106.05463386456424, 160.2821220432197 -90.85674421085074, 155.70391745794436 -77.77458111217193 C151.12571287266903 -64.69241801349312, 140.3883700713955 -49.026993340858716, 126.67900532018989 -36.44386653069769 C112.96964056898426 -23.860739720536664, 94.56358319517349 -8.260532018858765, 73.4477289507106 -2.2758202512057775 C52.3318747062477 3.708891516447209, 12.383648852599412 -0.8862361741602777, -0.016120146587490947 -0.5355959247797727 M0.42773174151778237 0.978894804865122 C-0.6582025521368668 -6.30302860769374, -14.32984823268744 -26.289093820835685, -8.046293710542255 -43.44950803907173 C-1.7627391883970693 -60.60992225730777, 24.755722830210686 -88.92347795585636, 38.129058874388896 -101.98359050455115 C51.502394918567106 -115.04370305324593, 64.28623802132986 -118.07275195687522, 72.19372255452701 -121.8101833312405 C80.10120708772416 -125.54761470560577, 82.5348058021118 -123.43514777323723, 85.5739660735718 -124.40817875074275 C88.61312634503179 -125.38120972824827, 80.06323591087929 -126.4182706741796, 90.42868418328698 -127.64836919627359 C100.79413245569467 -128.8784677183676, 136.76811463165518 -133.95485193700395, 147.76665570801796 -131.78876988330674 C158.76519678438075 -129.62268782960953, 155.29999834254698 -124.00258755675415, 156.4199306414636 -114.6518768740903 C157.5398629403802 -105.30116619142646, 159.84873609639456 -89.16978340750589, 154.48624950151762 -75.68450578732363 C149.12376290664068 -62.19922816714137, 137.76330833044577 -45.612290726238385, 124.24501107220202 -33.740211152996764 C110.72671381395827 -21.868131579755143, 94.32349353302394 -9.868613639715885, 73.37646595205516 -4.4520283478739024 C52.42943837108637 0.9645569439680797, 10.99572845858112 -1.8015758311540249, -1.4371544136106968 -1.2406994019448758" stroke="#000000" stroke-width="1" fill="none"></path></g></g><g><g transform="translate(353.16219900045417 166.28328846819954) rotate(0 24.198488413834582 0.24766409074629792)"><path d="M1.1088714133948085 -0.8680040191859006 C9.25158024138262 -0.8282327365130185, 40.30098461985837 -0.8617374014109374, 48.16508665158153 -0.6506286095827818 M0.23189017608761775 1.2906899254024031 C8.257628882214926 1.5557088796794418, 39.22602783762168 1.049427251070738, 47.10048587358297 0.5452166216075423" stroke="#000000" stroke-width="1" fill="none"></path></g></g><g transform="translate(629.9909132212626 109.26375189391501) rotate(0 77.41935483870975 93.54838709677415)"><path d="M32.75199455196993 16.826907454976038 C40.201129518191706 8.611462649029109, 53.0572237053211 4.586437393123823, 63.66377292042663 2.2600690962703 C74.27032213553215 -0.0662992005832237, 86.06020605118634 0.08545796290037089, 96.3912898426031 2.8686976738548964 C106.72237363401986 5.651937384809422, 117.63561830976406 11.356518958087712, 125.65027566892715 18.959507361997453 C133.66493302809025 26.562495765907194, 139.90266669450116 37.20404611370341, 144.47923399758167 48.486628097313336 C149.05580130066218 59.76921008092326, 152.26142271336704 73.41270246741512, 153.10967948741015 86.65499926365699 C153.95793626145326 99.89729605989886, 152.7710569734523 115.99028261205899, 149.56877464184038 127.94040887476461 C146.36649231022847 139.89053513747024, 141.1701025213029 149.3876086027355, 133.8959854977386 158.3557568398907 C126.62186847417428 167.32390507704588, 116.13135811194066 176.82276923131892, 105.92407250045446 181.7492982976957 C95.71678688896826 186.6758273640725, 83.42093328264329 189.15180683555354, 72.65227182882137 187.91493123815144 C61.88361037499944 186.67805564074933, 51.040657317612634 180.74935223414232, 41.31210377752291 174.32804471328302 C31.58355023743318 167.90673719242372, 20.828694569397456 159.5869306692555, 14.280950588283005 149.38708611299558 C7.733206607168555 139.18724155673564, 4.0303100621571275 125.44679946188708, 2.025639890836203 113.1289773757235 C0.020969719515278484 100.8111552895599, 0.356041910767787 87.63704203636048, 2.252929560357458 75.480153596014 C4.1498172099471295 63.32326515566753, 1.9303156912101347 53.02654714443382, 13.40696578837423 40.18764673364464 C24.883615885538326 27.34874632285546, 55.190137741290094 3.046515513545816, 71.11283014334202 -1.5532488687210702 C87.03552254539396 -6.153013250987956, 108.65987102110923 10.52044533328661, 108.94312020068583 12.589060440043326 M28.380733133368558 20.580724086734023 C35.2281530865242 11.557222442729751, 48.847245517158214 5.332763272253958, 59.099025879240116 2.2510978353109152 C69.35080624132202 -0.830567601632128, 79.53078797821883 0.14088620553143483, 89.89141530585997 2.0907314650757627 C100.2520426335011 4.040576724620091, 112.37752373323023 7.380078784148267, 121.26278984508698 13.950169392576882 C130.14805595694372 20.520260001005497, 137.45659429024394 30.39335931971209, 143.20301197700047 41.51127511564745 C148.949429663757 52.62919091158281, 154.56568418390023 67.02912561540033, 155.74129596562614 80.65766416818903 C156.91690774735204 94.28620272097773, 153.6440570307465 110.32991031801663, 150.25668266735596 123.28250643237965 C146.86930830396543 136.23510254674267, 141.84562878693953 149.55974840186406, 135.41704978528298 158.3732408543671 C128.98847078362644 167.18673330687017, 121.18676896022461 171.37062194432121, 111.6852086574167 176.16346114739804 C102.18364835460878 180.95630035047486, 89.75920982101714 186.88369458127585, 78.40768796843548 187.130276072828 C67.05616611585383 187.37685756438015, 53.57584509581111 182.47621363796614, 43.5760775419268 177.642950096711 C33.57630998804249 172.80968655545584, 25.182537415890224 168.11734276481664, 18.409082645129615 158.13069482529716 C11.635627874369007 148.14404688577767, 6.2106992117419555 130.17646859285117, 2.935348917363143 117.72306245959406 C-0.3400013770156698 105.26965632633696, -2.944047201438842 95.72141322103394, -1.2430191211432629 83.41025802575452 C0.4580089591523162 71.09910283047509, 7.809148143073002 54.55554042085783, 13.141517399136617 43.856131287917485 C18.473886655200232 33.15672215497714, 27.889006767864615 22.82148948343414, 30.751196415238432 19.21380322811244 C33.61338606261225 15.60611697279074, 29.58824084936783 20.731214169113517, 30.31465528337953 22.21001375598729" stroke="#000000" stroke-width="2" fill="none"></path></g><g transform="translate(676.5606542480684 198.768522452752) rotate(0 6.451612903225737 6.4516129032258505)"><path d="M4.75630760656159 0.4485145492169318 C5.968357287486748 -0.1569706587096401, 8.710001022568195 -0.5265468405102955, 10.137227894724179 -0.04694944182707772 C11.564454766880162 0.43264795685614016, 12.939600939718739 1.8221902630290856, 13.319668839497492 3.326098941316239 C13.699736739276245 4.830007619603393, 12.969580223244506 7.3994266092212175, 12.417635293396694 8.976502627895844 C11.865690363548882 10.55357864657047, 11.299290134368249 12.275149260742012, 10.007999260410621 12.788555053363996 C8.716708386452993 13.301960845985981, 6.187702123313551 12.488222682670754, 4.669890049650923 12.056937383627755 C3.152077975988295 11.625652084584756, 1.7295462557386503 11.225579167722264, 0.9011268184348546 10.200843259105998 C0.07270738113105912 9.176107350489731, -0.5258680502338248 7.170331769502935, -0.3006265741718499 5.908521931930159 C-0.07538509810987501 4.646712094357383, 0.9909589149199256 3.513864416884757, 2.252575674806704 2.629984233669341 C3.5141924346934825 1.7461040504539254, 6.160711913432749 1.0247110443875866, 7.269073985148821 0.6052408326376648 C8.377436056864893 0.18577062088774293, 9.025908710144956 0.20689131072933103, 8.902748105103132 0.11316296316980967 M6.504656225000339 0.030968774832754065 C8.175432534703392 -0.6770099589060282, 10.284877539331122 -1.0755913616623682, 11.260955380421782 -0.3489305938849574 C12.237033221512442 0.37773017389245356, 12.020980132299005 3.0462665816550523, 12.361123271544297 4.39093338149722 C12.70126641078959 5.735600181339388, 13.5653659007083 6.605819442813214, 13.301814215893538 7.719070205168051 C13.038262531078775 8.832320967522888, 12.399312357349617 10.339007363736503, 10.779813162655717 11.070437955626243 C9.160313967961818 11.801868547515983, 4.983707488222705 12.416425791846207, 3.5848190477301394 12.107653756506494 C2.185930607237574 11.798881721166781, 3.196057748492463 10.082854995974209, 2.386482519700322 9.217805743587963 C1.576907290908181 8.352756491201717, -1.153403382533913 8.267892260399751, -1.2726323250227063 6.917358242189012 C-1.3918612675114996 5.566824223978274, 0.7119341209953789 2.0208762788966737, 1.6711088647675618 1.1146016343235328 C2.6302836085397447 0.20832698975039177, 3.7290381805247375 1.5908042374359213, 4.482416137610391 1.4797103747501659 C5.235794094696045 1.3686165120644105, 5.946624707585424 0.7478410712162831, 6.191376607281484 0.4480384582090009" stroke="#000000" stroke-width="1" fill="none"></path></g><g transform="translate(716.0881417537482 200.1769731569775) rotate(0 6.451612903225737 6.4516129032258505)"><path d="M5.243862361767901 -0.7712406112472774 C6.34755490183387 -0.9057598077610987, 8.428821066387798 -0.10507415024321953, 9.560525161282692 0.9965591813231764 C10.692229256177587 2.0981925128895726, 11.498322928433343 4.462011544071628, 12.034086931137264 5.838559378151098 C12.569850933841185 7.215107212230568, 13.127307337347172 8.331103016490477, 12.77510917750622 9.255846185799998 C12.422911017665268 10.180589355109518, 11.299053043910618 10.8462146754843, 9.920897972091554 11.38701839400822 C8.54274290027249 11.927822112532139, 5.8698535966554175 12.865182075068136, 4.50617874659184 12.500668496943518 C3.142503896528263 12.136154918818901, 2.3223671268435804 10.446032865444721, 1.738848871710088 9.199936925260513 C1.1553306165765957 7.9538409850763045, 1.1191104981307098 6.321710171434692, 1.0050692157908871 5.024092855838267 C0.8910279334510646 3.7264755402418426, -0.13767919084439373 2.357937992049843, 1.0546011776711524 1.414233031681964 C2.2468815461866987 0.47052807131408514, 7.020634411146467 -0.5919050951186229, 8.158751426884164 -0.6381369063690059 C9.29686844262186 -0.6843687176193889, 8.036278084026513 1.0110983755241596, 7.883303272097333 1.136842164179666 M4.124119116021955 0.6986368097563647 C4.885426174766625 -0.06516037232701821, 5.848213993063579 -0.6995650713101136, 7.24737696382308 -0.24513324387537416 C8.64653993458258 0.20929858355936531, 11.823823708265268 1.9788839545319197, 12.519096940578958 3.4252277743648016 C13.214370172892648 4.871571594197683, 11.599751887462205 6.9130795125788564, 11.419016357705225 8.432929675121917 C11.238280827948245 9.952779837664977, 12.406296337538922 11.623108184590045, 11.434683762037082 12.544328749623164 C10.463071186535242 13.465549314656283, 7.026338894957373 14.028254689218059, 5.5893409046941835 13.960253065320632 C4.152342914430994 13.892251441423205, 3.8519251642543084 13.358616100702628, 2.812695820457945 12.136319006238603 C1.7734664766615815 10.914021911774578, -0.11904232553519145 8.188013371880304, -0.6460351580839969 6.626470498536477 C-1.1730279906328023 5.06492762519265, -0.9715835688880169 3.816911603784181, -0.34926117483488817 2.7670617661756376 C0.27306121921824056 1.7172119285670944, 2.4384984256661477 0.46936554922569995, 3.0878992062347757 0.3273714728852184 C3.7372999868034036 0.1853773965447368, 3.486573605960003 1.8069885225467772, 3.54714350857688 1.915097308132748" stroke="#000000" stroke-width="1" fill="none"></path></g><g><g transform="translate(675.1522035438434 238.2960099584311) rotate(0 31.451583743020137 10.180138473362945)"><path d="M0.23485382907092567 -0.9708169173449277 C2.415840618030529 2.1546946700902563, 6.068226903416023 15.086443170652638, 13.999354310505396 18.305252716461883 C21.93048171759477 21.524062262271126, 39.53369872694081 20.96303976591968, 47.821618271607164 18.34204035751054 C56.109537816273516 15.7210409491014, 62.02372349920053 5.058105176979659, 63.726871578503506 2.5792562660070417 C65.43001965780648 0.1004073550344251, 58.87886895270994 3.349882930168913, 58.04050674742503 3.468946891674841 M-1.1009866400063038 1.1339002557098867 C0.8505044209374002 4.411124787652669, 5.125343106053576 16.29266068798388, 13.102014839448339 19.29164532124506 C21.078686572843104 22.29062995450624, 38.3494778233505 21.785802557508585, 46.759043760362275 19.127808055276965 C55.16860969737405 16.469813553045345, 61.92643628711183 5.867090443143604, 63.55941046151902 3.3436783078553436 C65.19238463592622 0.8202661725670835, 57.68665195250859 4.163066211069034, 56.55688880680544 3.9873352435474043" stroke="#000000" stroke-width="1" fill="none"></path></g></g><g><g transform="translate(652.5715583825531 155.08337006376337) rotate(0 56.80372355164229 -3.0453362635956864)"><path d="M-0.7237698543816804 -0.29464085809886453 C2.0653533714713452 -2.8779872305139103, 11.084263388151719 -11.322209976569768, 15.920170967773675 -16.330703739863157 C20.75607854739563 -21.339197503156548, 20.855150550888265 -27.114042908811733, 28.291675623350056 -30.3456034378592 C35.72820069581185 -33.57716396690667, 47.56123546597416 -38.61761239322543, 60.53932140254442 -35.72006691414795 C73.51740733911468 -32.82252143507047, 97.92841414343235 -22.738306113015334, 106.16019124277163 -12.960330563394336 C114.39196834211091 -3.182355013773341, 122.40784378143094 15.781485509010114, 109.92998399858011 22.947786383578023 C97.45212421572928 30.114087258145933, 49.965842960832916 31.353166026332193, 31.293032545666666 30.037474684013112 C12.620222130500416 28.72178334169403, 0.548325032899478 23.280660864791685, -2.1068784924173993 15.053638329663546 C-4.762082017734277 6.826615794535405, 12.469597170445073 -13.546135291234933, 15.361811393765402 -19.324660526755725 M1.0971122427284716 -1.4949312539398671 C3.781213550761521 -4.371272714455346, 9.912463443139984 -13.56735563802814, 14.862473326743721 -18.213533896770596 C19.81248321034746 -22.85971215551305, 23.208926293761817 -26.675158659705687, 30.797171544350896 -29.3720008063946 C38.38541679493998 -32.06884295308351, 48.01282406409139 -37.204392676303975, 60.3919448302782 -34.39458677690408 C72.77106559646501 -31.584780877504183, 96.64736965868292 -21.986629453058754, 105.07189614147175 -12.513165409995226 C113.49642262426059 -3.0397013669316966, 123.09189654523573 15.522447130190294, 110.93910372701122 22.446197481477103 C98.7863109087867 29.369947832763913, 51.094258949144084 30.2913377948932, 32.155139232124654 29.02933669772564 C13.216019515105224 27.76733560055808, 0.2877652412004257 23.0689557598595, -2.6956145751053735 14.874190898471744 C-5.678994391411173 6.67942603708399, 11.662476988750447 -14.38442587256559, 14.25486033428986 -20.139252470600876" stroke="#000000" stroke-width="1" fill="none"></path></g></g><g><g transform="translate(679.4691089509342 83.45730028101161) rotate(0 12.29100461807434 36.430794906399115)"><path d="M0.43407738693058495 -1.0504554737359284 C4.594250946614155 11.12168097902611, 21.523608822986528 60.292679218415174, 25.379179950419122 73.00080848428756 M-0.7971707142703235 1.0124514572136105 C3.2264793179102327 13.287391812005641, 20.336917798478197 61.85023517695069, 24.77964381561359 73.91204528653398" stroke="#000000" stroke-width="1" fill="none"></path></g><g transform="translate(679.4691089509342 83.45730028101161) rotate(0 12.29100461807434 36.430794906399115)"><path d="M3.853342093089431 51.94682758758192 C10.030879297286283 56.58341004137497, 20.11423100498846 65.78254907976937, 25.020288093618355 74.05198885456994 M5.115925629185348 50.116698473602284 C10.248949725739365 56.93318963077967, 15.574214882132535 63.71127494136144, 25.331322844743035 74.01046039400026" stroke="#000000" stroke-width="1" fill="none"></path></g><g transform="translate(679.4691089509342 83.45730028101161) rotate(0 12.29100461807434 36.430794906399115)"><path d="M23.169703219615847 45.01875460763587 C22.877407671464493 52.04504014204523, 26.492774703696565 63.5640089646992, 25.020288093618355 74.05198885456994 M24.432286755711765 43.18862549365623 C24.46584765602083 51.671504778839086, 24.753432232377957 60.25642205324337, 25.331322844743035 74.01046039400026" stroke="#000000" stroke-width="1" fill="none"></path></g></g><g transform="translate(557.38755111313 22.52045339323331) rotate(0 150.5 23)"><text x="0" y="32" font-family="Virgil, Segoe UI Emoji" font-size="36px" fill="#000000" text-anchor="start" style="white-space: pre;" direction="ltr">Fits in your head</text></g></svg>