<svg version="1.1" xmlns="http://www.w3.org/2000/svg" viewBox="0 0 893 460">
  <!-- svg-source:excalidraw -->
  <defs>
    <style>
      @font-face {
        font-family: "Virgil";
        src: url("https://excalidraw.com/FG_Virgil.woff2");
      }
      @font-face {
        font-family: "Cascadia";
        src: url("https://excalidraw.com/Cascadia.woff2");
      }
    </style>
  </defs>
  <rect x="0" y="0" width="893" height="460" fill="#ffffff"></rect><g transform="translate(73 150) rotate(0 106.5 79)"><path d="M65.26484387496566 5.354264051922428 C77.04268565377814 0.3438433641649752, 95.05667594530033 -0.7881003297687007, 109.29542113194162 -0.600821003951566 C123.53416631858292 -0.4135416781344313, 138.03885828334143 2.0667797456006554, 150.69731499481344 6.477940006825236 C163.35577170628545 10.889100268049816, 175.76959755251744 18.13567190029892, 185.2461614007737 25.866140563395916 C194.72272524902996 33.596609226492916, 203.00752357293993 42.96375135525211, 207.55669808435107 52.86075198540722 C212.1058725957622 62.75775261556233, 213.54632190726298 74.89102253383004, 212.54120846924053 85.2481443443266 C211.53609503121808 95.60526615482317, 208.12779673712961 105.6944626659997, 201.52601745621644 115.00348284838664 C194.92423817530326 124.31250303077358, 183.93741671424755 134.385101413827, 172.93053278376152 141.10226543864826 C161.9236488532755 147.81942946346953, 148.96710698066232 152.69152798390314, 135.4847138733002 155.3064669973142 C122.00232076593807 157.92140601072526, 105.93944470080928 158.09142575521184, 92.03617413958872 156.7918995191146 C78.13290357836817 155.49237328301734, 63.89232338956405 152.60542852019537, 52.065090505976876 147.5093095807308 C40.237857622389704 142.4131906412662, 29.24522612104612 134.60637919840187, 21.072776838065693 126.21518588232703 C12.900327555085266 117.82399256625222, 6.198447303010296 107.61562172028188, 3.0303948080943144 97.16214968428184 C-0.13765768682166657 86.7086776482818, -0.3500011747160605 73.78113620641987, 2.0644618685698077 63.49435366632683 C4.478924911855676 53.20757112623379, 9.784852124453877 43.78424759448113, 17.517173067809523 35.441454443723586 C25.24949401116517 27.098661292966042, 38.48742917739742 18.94835916698985, 48.458387528703675 13.437594761781583 C58.429345880009926 7.926830356573315, 70.5823659535008 4.102718229755763, 77.34292317564703 2.3768680124739774 C84.10348039779326 0.6510177951921914, 88.48853522238286 1.8063313294766228, 89.02173086158103 3.082493458090866 M80.82992058154761 1.1234937544255104 C93.44917964767893 -2.31354541252632, 110.62639324275283 0.2501653185582289, 124.84831754909315 1.9636728831028876 C139.07024185543347 3.6771804476475465, 154.6171384474048 5.82375482107748, 166.16146641958954 11.404539141693462 C177.70579439177428 16.985323462309445, 186.71201707179597 26.586159313710915, 194.11428538220156 35.44837880679878 C201.51655369260715 44.31059829988664, 207.97731965908068 54.21052778835908, 210.57507628202308 64.57785610022066 C213.17283290496547 74.94518441208224, 212.8272542071709 87.49970337118849, 209.700825119856 97.65234867796825 C206.5743960325411 107.80499398474801, 200.04350405532955 117.43031228320952, 191.8165017581336 125.49372794089925 C183.58949946093765 133.557143598589, 172.35002981692045 140.80212095633235, 160.33881133668035 146.03284262410665 C148.32759285644025 151.26356429188095, 133.52325888651143 155.35354465626722, 119.74919087669291 156.87805794754507 C105.9751228668744 158.40257123882293, 91.09362620147128 158.2097147028905, 77.6944032777693 155.17992237177387 C64.29518035406731 152.15013004065725, 50.261117371139235 145.55683615927157, 39.353853334481 138.6993039608454 C28.44658929782277 131.84177176241926, 18.694137271181713 122.98123454854854, 12.250819057819882 114.03472918121696 C5.80750084445805 105.08822381388538, 1.900067330696885 95.46620959161937, 0.693944054310009 85.02027175685596 C-0.5121792220768668 74.57433392209255, 0.34417585411047913 61.095656467863755, 5.014079399498627 51.35910217263648 C9.683982944886775 41.62254787740921, 18.953016961323417 34.06126774071142, 28.713365326638893 26.600945985492324 C38.47371369195437 19.14062423027323, 54.53303867019119 10.743834703201877, 63.57616959139148 6.597171641321907 C72.61930051259178 2.4505085794419363, 80.06809485675369 2.0803098533510416, 82.97215085384067 1.7209676142124977 C85.87620685092766 1.3616253750739535, 80.83454779952861 3.1521759097284603, 81.0005055739134 4.441118206490643" stroke="#000000" stroke-width="1" fill="none"></path></g><g transform="translate(117 209.5) rotate(0 64.5 18)"><text x="0" y="25" font-family="Virgil" font-size="28px" fill="#000000" text-anchor="start" style="white-space: pre;" direction="ltr">Your code</text></g><g transform="translate(549 150) rotate(0 129 109)"><path d="M143.59985634453832 0.0027807465125420094 C158.33467320307244 -0.39286354011563657, 173.98274334721447 5.240532328419036, 187.38539290670022 11.127137055305113 C200.78804246618597 17.01374178219119, 213.73906123355974 25.857274991316807, 224.0157537014529 35.322409107829 C234.29244616934605 44.7875432243412, 243.41489079836776 55.983051386212786, 249.04554771405913 67.91794175437829 C254.6762046297505 79.85283212254379, 257.4218650455725 94.15392684395934, 257.7996951956011 106.93175131682203 C258.1775253456297 119.70957578968472, 256.44365240048825 132.4231333334687, 251.31252861423076 144.58488859155443 C246.18140482797324 156.74664384964015, 236.87572678074244 169.94662506538626, 227.01295247805604 179.9022828653363 C217.15017817536963 189.85794066528635, 205.3254810008445 198.26773984308556, 192.13588279811233 204.31883539125477 C178.94628459538018 210.36993093942397, 162.84335159762654 214.2175305445814, 147.87536326166315 216.2088561543515 C132.90737492569977 218.20018176412162, 116.92352470914793 218.68721810994117, 102.327952782332 216.2667890498754 C87.73238085551608 213.84635998980963, 73.009070864647 208.54565130692419, 60.30193170076761 201.68628179395688 C47.59479253688822 194.82691228098957, 35.25720601247004 185.66552740270782, 26.08511779905568 175.11057197207163 C16.91302958564132 164.55561654143543, 9.66311742334592 150.71765474771274, 5.269402420281452 138.35654921013963 C0.8756874172169828 125.99544367256651, -1.3624494450257696 113.42234763371958, -0.2771722193311348 100.94393874663288 C0.8081050063635 88.46552985954618, 5.1178765901712024 75.3073047680485, 11.78106577444926 63.48609588761946 C18.444254958727317 51.66488700719042, 28.599972395068527 39.0419081210368, 39.70196288633721 30.016685464058654 C50.8039533776059 20.991462807080513, 64.44558391039192 14.429476619513608, 78.39300872206138 9.33475994575062 C92.34043353373085 4.240043271987631, 111.23636879108166 0.7264935297108341, 123.38651175635401 -0.5516145785192776 C135.53665472162635 -1.8297226867493894, 145.1138131529133 0.772757290244788, 151.2938665136955 1.666111296369948 C157.47391987447767 2.559465302495108, 160.88260901197518 3.0083927896731764, 160.46683192104717 4.808509458231683 M161.281184860523 3.776223410368715 C175.36875405054252 5.467852014530632, 191.09310082965928 12.435026888062382, 203.52349312241518 20.024823355420352 C215.95388541517107 27.614619822778323, 227.39751882566728 38.64225592355014, 235.86353861705834 49.31500221451654 C244.3295584084494 59.98774850548294, 250.79469574141558 71.89512677379906, 254.31961187076155 84.06130110121876 C257.8445280001075 96.22747542863846, 258.912352709299 109.63246172205558, 257.01303539313415 122.31204817903473 C255.1137180769693 134.99163463601388, 249.9460678315548 148.59450355586088, 242.9237079737725 160.13881984309367 C235.9013481159902 171.68313613032646, 226.23773548942236 183.26087984885714, 214.87887624644029 191.57794590243145 C203.5200170034582 199.89501195600576, 189.07838688941763 205.78472318032834, 174.77055251588 210.04121616453943 C160.4627181423424 214.29770914875053, 144.25468774571848 216.8410537491365, 129.03187000521453 217.11690380769807 C113.80905226471057 217.39275386625962, 97.8913695155565 216.31854913450644, 83.43364607285628 211.69631651590873 C68.97592263015605 207.07408389731103, 53.66807555514129 197.80395255899987, 42.28552934901319 189.38350809611177 C30.902983142885084 180.96306363322367, 22.005242730846287 172.33501941262955, 15.138368836087636 161.17364973858017 C8.271494941328985 150.01228006453078, 2.817618330405061 135.4276473665264, 1.0842859804612885 122.41529005181542 C-0.649046369482484 109.40293273710444, 1.4253201833234832 95.41185548260204, 4.738374736425001 83.0995058503143 C8.051429289526519 70.78715621802657, 12.692101735073402 59.13584288918674, 20.962613299070398 48.54119225808905 C29.233124863067395 37.946541626991355, 41.93128529737046 27.114310927774085, 54.36144412040697 19.53160206372813 C66.7916029434435 11.948893199682175, 80.5854281722105 6.204395478806601, 95.5435662372895 3.0449390738133246 C110.5017043023685 -0.11451733117995166, 132.7530116730517 0.21317374064391004, 144.11027251088092 0.5748636337684729 C155.46753334871013 0.9365535268930358, 160.53216301327822 4.18975276309956, 163.6871312642648 5.215078432560702 C166.84209951525136 6.240404102021844, 163.66434838978643 5.3339384155045595, 163.0400820168003 6.726817650535324" stroke="#000000" stroke-width="1" fill="none"></path></g><g transform="translate(618 246.5) rotate(0 59 18)"><text x="0" y="25" font-family="Virgil" font-size="28px" fill="#000000" text-anchor="start" style="white-space: pre;" direction="ltr">Hyperapp</text></g><g><g transform="translate(298.0271070122719 184.24258937597278) rotate(0 137.24900080822403 -0.8362212646007379)"><path d="M0.5956710960716007 -2.36052152775228 C46.201177133619765 -2.7366613890975713, 226.34186833401515 -0.5973738338798289, 271.45460385866454 -0.5656084980815654 M-2.52548880815506 2.5297415471076965 C44.20522888389725 1.2720429217815399, 230.4071843536446 -2.581123634576798, 277.02349042460315 -4.202184076309204" stroke="#000000" stroke-width="1" fill="none"></path></g><g transform="translate(298.0271070122719 184.24258937597278) rotate(0 137.24900080822403 -0.8362212646007379)"><path d="M245.7453554810093 4.617125985068603 C258.801211183251 1.7908647302279865, 262.7099963693004 -0.3412191526912691, 277.27773051649325 -3.7787084494531156 M249.92772984477443 8.010039291200563 C257.6080731163441 1.5543499404509178, 269.82617571676616 -0.7514638392634314, 277.63633763544254 -5.454469648078084" stroke="#000000" stroke-width="1" fill="none"></path></g><g transform="translate(298.0271070122719 184.24258937597278) rotate(0 137.24900080822403 -0.8362212646007379)"><path d="M245.19593215202906 -15.896726319932817 C258.62168091270564 -14.167170988440342, 262.65254732734815 -11.741100602193784, 277.27773051649325 -3.7787084494531156 M249.37830651579418 -12.503813013800858 C257.1077190678841 -11.98706751070342, 269.5125154953157 -7.3222824979739976, 277.63633763544254 -5.454469648078084" stroke="#000000" stroke-width="1" fill="none"></path></g></g><g transform="translate(441 115.5) rotate(0 158 12.5)"><text x="0" y="20" font-family="Cascadia" font-size="20px" fill="#000000" text-anchor="start" style="white-space: pre;" direction="ltr">[fetchEffect, {url,action}]</text></g><g transform="translate(10 10) rotate(0 436.5 220)"><path d="M-0.9812489971518517 0.5296584829688072 C187.44694232558837 -6.211898229949177, 376.77401212733247 -5.676800678603351, 872.4632912650706 -0.2673437848687172 M-0.642657745629549 0.6679607160389424 C297.196986770723 3.9667949180230506, 594.0296114811674 3.2909220914468174, 873.0418741099537 0.5051615722477436 M874.8133926674657 0.43255523149202 C875.1095240210685 166.61256331566338, 878.0386522980721 334.95091894864, 874.8361082829001 441.0651638658098 M873.7627570102944 -0.6847720835056786 C876.0502997764645 98.7353446521381, 876.9061055772767 196.90926902591588, 872.3135810654408 440.0276018853063 M871.7147902980448 440.04247691482317 C564.4550692447461 432.5586863582061, 256.9509649517015 433.808301121466, -0.39862537235021595 439.55465128272783 M872.7121050469578 440.62272169664516 C601.9105285092257 442.0360492726342, 329.8227817749605 441.92594030103845, -0.4704056389629841 440.24940161779534 M0.3458778155211432 441.80476902111207 C3.450484990938684 282.2232794194861, 4.894903159559031 124.21951624996618, -1.7303413785689838 1.001139096545912 M-0.29536237581766756 440.9085969053629 C1.0936474291407967 317.7811469748141, 2.1098750638075967 194.77679162746762, 0.5900277980801945 0.5359851290803661" stroke="#000000" stroke-width="1" fill="none"></path></g><g transform="translate(30.5 96.5) rotate(0 165 167.5)"><path d="M280.91617586431425 49.75034021675904 C293.59380258108536 58.56938628948531, 302.198896028495 73.37338571881831, 309.9833833344177 87.98921382888615 C317.76787064034033 102.60504193895399, 324.6153573703273 120.74884330214873, 327.62309969985006 137.44530887716607 C330.63084202937284 154.1417744521834, 329.98659171956325 171.72857642516988, 328.0298373115543 188.1680072789902 C326.0730829035453 204.6074381328105, 322.65131988075836 220.88304563753704, 315.8825732517962 236.08189400008803 C309.11382662283404 251.28074236263902, 298.50278038150833 266.5769977687832, 287.4173575377814 279.3610974542961 C276.3319346940545 292.145197139809, 263.97289919792405 304.0055246168244, 249.37003618943476 312.7864921131654 C234.76717318094546 321.56745960950644, 216.22546799637698 328.1862124172722, 199.80017948684574 332.0469024323422 C183.3748909773145 335.90759244741224, 167.2437616965569 337.53812485157573, 150.8183051322473 335.95063220358554 C134.3928485679377 334.36313955559535, 116.50780018218582 329.3524208875288, 101.24744010098811 322.52194654440115 C85.98708001979041 315.6914722012735, 71.63025728276278 305.80277577214224, 59.25614464506111 294.96778614481946 C46.882032007359435 284.1327965174967, 35.657182394143156 271.8221866462956, 27.00276427477806 257.5120087804644 C18.348346155412962 243.20183091463315, 11.739871772968115 225.518449231856, 7.329635928870516 209.1067189498321 C2.919400084772917 192.6949886678082, -0.11927493163175029 175.81244334567197, 0.5413492101924646 159.0416270883209 C1.2019733520166795 142.27081083096982, 5.782405583796664 123.9935986243962, 11.293380779815806 108.48182140572575 C16.804355975834948 92.97004418705531, 23.820057714793016 79.22791358571655, 33.60720038630731 65.9709637762982 C43.39434305782161 52.71401396687986, 56.14494096030048 38.72496097586472, 70.01623680890157 28.940122549215687 C83.88753265750266 19.155284122566655, 101.24900518116917 11.937690157861173, 116.83497547791384 7.2619332164040316 C132.42094577465852 2.5861762749468893, 147.30811637166187 0.8324672345101192, 163.53205858936965 0.8855809004728314 C179.75600080707744 0.9386945664355437, 198.27794012443394 2.9269568497941707, 214.17862878416065 7.580615212180305 C230.07931744388736 12.23427357456644, 240.7950769414327 9.980614898107884, 258.93619054773 28.807531074789637 C277.07730415402733 47.634447251471386, 312.2238825455125 91.71806304479036, 323.0253104219445 120.54211227227083 C333.8267382983765 149.36616149975129, 326.01385145883586 200.9262391805953, 323.74475780632196 201.75182643967247 M243.7526085942901 20.637501389534805 C259.55686656767426 25.84364506680392, 274.81832489105744 37.284139327314506, 286.557622360747 49.6138015939881 C298.2969198304366 61.943463860661694, 307.71527918966285 79.24045712445817, 314.1883934124277 94.61547498957638 C320.6615076351925 109.9904928546946, 323.2527783530786 125.46256510596058, 325.3963076973358 141.8639087846974 C327.53983704159305 158.26525246343422, 329.08763277436094 176.13208294539908, 327.0495694779709 193.02353706199736 C325.0115061815809 209.91499117859564, 320.5382055323307 227.71088616756933, 313.1679279189957 243.21263348428715 C305.7976503056607 258.71438080100495, 294.5327899366312 273.97191995395207, 282.82790379796086 286.0340209623043 C271.1230176592905 298.0961219706565, 257.42655339199035 308.02264041092593, 242.9386110869735 315.58523953440044 C228.45066878195667 323.14783865787496, 211.69531657051772 328.2812975428048, 195.90024996785988 331.4096157031513 C180.10518336520204 334.5379338634978, 164.52584088411643 336.37064062893984, 148.16821147102638 334.3551484964794 C131.81058205793633 332.33965636401894, 113.33187970054574 325.90127268738144, 97.75447348931952 319.3166629083887 C82.1770672780933 312.732053129396, 67.23212239280411 306.12709826390847, 54.703774203669056 294.84748982252296 C42.175426014534004 283.56788138113745, 30.529688711123462 266.4671518557523, 22.58438435450921 251.63901226007573 C14.63907999789496 236.81087266439914, 10.232687420175415 221.90046629645778, 7.031948063983549 205.87865224846334 C3.8312087077916837 189.8568382004689, 2.6515509422845818 172.25239584841992, 3.37994821735802 155.50812797210904 C4.108345492431458 138.76386009579815, 6.101748942089117 121.40085912078591, 11.402331714424179 105.41304499059801 C16.70291448675924 89.42523086041011, 24.730726594109846 72.43838167368666, 35.18344485136839 59.58124319098167 C45.63616310862694 46.72410470827667, 60.476411125291165 36.82991074298992, 74.11864125797544 28.270214094368043 C87.76087139065972 19.71051744574617, 101.15244812099353 12.606765985457216, 117.03682564747406 8.223063299250441 C132.92120317395458 3.8393606130436666, 152.64359498436056 1.6337442559511952, 169.42490641685862 1.9679979771273963 C186.20621784935668 2.3022516983035977, 205.23363530957758 6.963220235701968, 217.72469424246248 10.228585626307648 C230.21575317534737 13.493951016913329, 240.60573708710186 19.030331613777765, 244.37126001416806 21.56019032076148 C248.13678294123426 24.09004902774519, 241.86719595979758 23.030994980026914, 240.31783180485974 25.40773786820992" stroke="#2b8a3e" stroke-width="1" fill="none"></path></g><g transform="translate(142.5 377.5) rotate(0 39.5 23)"><text x="0" y="32" font-family="Virgil" font-size="36px" fill="#2b8a3e" text-anchor="start" style="white-space: pre;" direction="ltr">Pure</text></g><g transform="translate(394.5 27.5) rotate(0 241.5 209.5)"><path d="M364.45601691414856 28.868217046945517 C383.74599076853605 34.97021808038328, 401.50913933175684 50.42960862363507, 415.9043843627011 63.55509829282471 C430.2996293936453 76.68058796201434, 441.0469011510304 91.94214426151105, 450.82748709981416 107.62115506208335 C460.60807304859793 123.30016586265565, 469.345488815464 140.36672681510714, 474.58790005540357 157.62916309625848 C479.8303112953431 174.89159937740982, 482.248992366271 193.08549923539908, 482.2819545394515 211.19577274899137 C482.31491671263194 229.30604626258366, 480.3782800660352 248.39796212132484, 474.78567309448624 266.2908041778122 C469.1930661229373 284.1836462342996, 459.7943926450932 302.8340020434924, 448.7263127101577 318.5528250879157 C437.6582327752222 334.27164813233907, 423.2517915393085 348.4716788172984, 408.37719348487315 360.6037424443522 C393.5025954304378 372.73580607140593, 377.3759943593161 382.9090190428542, 359.4787243835457 391.34520685023836 C341.58145440777525 399.7813946576225, 321.10529021591657 406.5399271026808, 300.9935736302505 411.2208692886573 C280.8818570445845 415.9018114746338, 260.0742863224047 419.78631833305644, 238.80842486954938 419.43085996609733 C217.54256341669407 419.0754015991382, 193.62100639692835 414.27489956771956, 173.39840491311867 409.0881190869025 C153.17580342930898 403.90133860608546, 135.10220330086327 397.2841325339603, 117.47281596669123 388.31017708119487 C99.84342863251919 379.3362216284294, 82.20326233330037 368.1245579435469, 67.62208090808647 355.2443863703098 C53.04089948287257 342.36421479707275, 39.929440704555766 327.12020520750684, 29.98572741540781 311.0291476417725 C20.04201412625985 294.9380900760382, 12.9641877476538 276.5299542472282, 7.959801173198741 258.6980409759037 C2.9554145987436824 240.86612770457924, -0.5886789705815593 222.08514653456177, -0.04059203132254652 204.0376680138257 C0.5074949079364662 185.99018949308964, 5.2677194840198736 167.15651602568352, 11.248322808752818 150.41316985148734 C17.22892613348576 133.66982367729116, 25.635504573936288 118.89939231784344, 35.84302791707512 103.57759096864864 C46.05055126021395 88.25578961945384, 58.01104490179359 71.0609442712012, 72.4934628675858 58.48236175631851 C86.97588083337803 45.90377924143583, 104.31621103521827 36.80021467025606, 122.73753571182841 28.106095879352523 C141.15886038843857 19.411977088448985, 162.3321499161957 10.870823711702215, 183.02141092724668 6.31764901089727 C203.71067193829765 1.764474310092325, 225.85779401743778 0.5142174186006752, 246.87310177813418 0.787047674522853 C267.88840953883056 1.0598779304450308, 283.7487591417951 -0.6242366587709736, 309.11325749142503 7.954630546430337 C334.47775584105494 16.53349775163165, 379.5536298799695 40.10841335706866, 399.0600918759137 52.260250905730715 C418.56655387185793 64.41208845439276, 428.2026241052301 77.97885529611847, 426.1520294670903 80.86565583840263 M288.242915870348 2.2986486355536613 C308.8546863782115 2.2024249369847317, 329.3552680273358 10.991810076915499, 348.08435431753054 18.67030594626675 C366.8134406077253 26.348801815618003, 384.92541046116963 36.49621645496585, 400.6174336115163 48.369623851661174 C416.3094567618629 60.2430312483565, 430.8418830750655 74.72646651708536, 442.23649321961045 89.91075032643873 C453.6311033641554 105.0950341357921, 462.46679726149944 122.1257670545341, 468.9850944787861 139.47532670778145 C475.50339169607275 156.8248863610288, 479.51552996060224 176.36228410773734, 481.3462765233305 194.0081082459228 C483.1770230860588 211.6539323841083, 483.8063362528883 227.4524702892695, 479.96957385515566 245.35027153689435 C476.13281145742303 263.2480727845192, 467.93983873001685 284.9120026479757, 458.3257021369347 301.39491573167186 C448.71156554385254 317.877828815368, 435.90254327734135 330.9176349682492, 422.28475429666287 344.2477500390712 C408.6669653159844 357.5778651098932, 393.59371490687556 370.46252365960584, 376.61896825286385 381.3756061566038 C359.64422159885214 392.28868865360175, 340.28017675288584 403.48803171671227, 320.4362743725926 409.726245021059 C300.5923719922994 415.96445832540576, 277.98851345511434 417.9766202325086, 257.5555539711044 418.8048859826843 C237.12259448709452 419.63315173286003, 217.84843132264862 417.99309211077434, 197.83851746853315 414.6958395221132 C177.8286036144177 411.39858693345207, 156.40436045450772 406.6649767761858, 137.49607084641167 399.0213704507174 C118.5877812383156 391.37776412524903, 99.91455098097609 381.0969973515602, 84.38877981995677 368.8342015693029 C68.86300865893745 356.57140578704553, 55.65776891967776 340.21905960891974, 44.341443880295714 325.44459575717343 C33.02511884091367 310.6701319054271, 23.267178585966334 296.57173809647173, 16.490829583664492 280.18741845882494 C9.71448058136265 263.80309882117814, 6.109143441605477 245.0374996802651, 3.6833498664846616 227.13867793129265 C1.2575562913638456 209.23985618232018, -1.2783877126338012 190.52960730900142, 1.936068132939596 172.7944879649902 C5.150523978512993 155.05936862097897, 13.322691940726221 137.65353447097417, 22.970084939925044 120.72796186722525 C32.617477939123866 103.80238926347633, 46.39521841393141 85.35759652588557, 59.82042612813254 71.24105234249666 C73.24563384233367 57.124508159107755, 86.34795290294142 45.590240873323445, 103.52133122513183 36.02869676689181 C120.69470954732225 26.46715266046018, 143.24880045718004 19.980983558598776, 162.86069606127504 13.871787703906875 C182.47259166537003 7.762591849214975, 200.77815839677916 1.5859497510466176, 221.19270484970173 -0.6264783612595863 C241.6072513026243 -2.8389064735657903, 274.6306537686531 -0.4317316038393433, 285.34797477881045 0.5972190300696525 C296.06529578896783 1.6261696639786483, 286.008058872754 1.3781622079842935, 285.49663091064605 5.547225442194389" stroke="#c92a2a" stroke-width="1" fill="none"></path></g><g transform="translate(579.5 396.5) rotate(0 57 23)"><text x="0" y="32" font-family="Virgil" font-size="36px" fill="#c92a2a" text-anchor="start" style="white-space: pre;" direction="ltr">Impure</text></g></svg>