<svg version="1.1" xmlns="http://www.w3.org/2000/svg" viewBox="0 0 834.4390243902442 351.78861788617905">
  <!-- svg-source:excalidraw -->
  <defs>
    <style>
      @font-face {
        font-family: "Virgil";
        src: url("https://excalidraw.com/FG_Virgil.woff2");
      }
      @font-face {
        font-family: "Cascadia";
        src: url("https://excalidraw.com/Cascadia.woff2");
      }
    </style>
  </defs>
  <rect x="0" y="0" width="834.4390243902442" height="351.78861788617905" fill="#ffffff"></rect><g transform="translate(42.682926829268354 250.97560975609758) rotate(0 56.91056910569108 45.406504065040735)"><path d="M-1.700953794643283 1.2593787740916014 C33.05280159266923 -0.305126116482344, 67.59554509338507 0.4110819242319199, 114.33502178904185 1.6741772126406431 M-0.7110590124502778 0.470410012640059 C23.11100440470093 -1.534562913451071, 48.82072403370517 -1.5586925723885252, 113.98052716240802 -0.13594502862542868 M115.8030045580543 -1.3295797873288393 C113.89630460280063 25.983195857220664, 112.89814942616107 49.43981419891372, 115.10974752422938 89.27314858000774 M114.21475553498188 0.3018274838104844 C114.13029614170651 32.81129606171117, 115.44846791108708 68.06166372561039, 113.91173300132671 89.91411354534377 M111.83949481960902 90.90484385054607 C86.8288903846822 89.16985329705483, 59.69675160222119 91.05469003039605, 0.818189250305295 89.62630961697597 M114.31500586852947 90.29868628971327 C73.85945400320811 90.32011045102897, 34.75365551770854 89.26217303757491, -0.5001119459047914 89.90926735989798 M-0.9095372091978788 90.54238293927212 C0.6566720014475892 68.27031200590397, -1.434367238912671 44.7459656056169, -0.11972768418490887 0.6249567102640867 M-0.5173941934481263 91.67789619557608 C-0.8376428829165309 65.86990765547318, 0.38027292027751514 41.88466634590006, -0.7207940006628633 0.5527940029278398" stroke="#000000" stroke-width="1" fill="none"></path></g><g transform="translate(57.345020325202995 269.727134146342) rotate(0 39 25.5)"><text x="0" y="18.5" font-family="Virgil, Segoe UI Emoji" font-size="20px" fill="#000000" text-anchor="start" style="white-space: pre;" direction="ltr">page.js</text><text x="0" y="44" font-family="Virgil, Segoe UI Emoji" font-size="20px" fill="#000000" text-anchor="start" style="white-space: pre;" direction="ltr">callback</text></g><g><g transform="translate(156.87026275660742 293.7901095673533) rotate(0 47.84792517094695 1.2306549061719352)"><path d="M-0.6907128531485796 -0.6001343350857496 C14.920146030332935 -0.1374921859030792, 78.24192871077007 1.2081856470679895, 94.24396534388538 1.8119803688824958 M1.1475241696089507 1.6991911936551332 C17.064822929646862 2.401114596652501, 80.81912367267556 3.166191786465611, 96.38656319504257 3.052853577524502" stroke="#000000" stroke-width="1" fill="none"></path></g><g transform="translate(156.87026275660742 293.7901095673533) rotate(0 47.84792517094695 1.2306549061719352)"><path d="M67.14974971218747 11.379226598323251 C77.12288646784147 9.808701272235474, 88.97359256572317 5.381786810460463, 96.1159380042332 3.7042680184692927 M68.0901097619046 13.499186493822302 C76.93869120906176 9.782849636574284, 86.11846552590846 6.174982947071218, 97.25145126053717 2.064663067214269" stroke="#000000" stroke-width="1" fill="none"></path></g><g transform="translate(156.87026275660742 293.7901095673533) rotate(0 47.84792517094695 1.2306549061719352)"><path d="M67.24194060409863 -9.141774917813526 C77.01814307920664 -3.566713533353068, 88.83674514297392 -0.8475106392966252, 96.1159380042332 3.7042680184692927 M68.18230065381576 -7.021815022314476 C76.85354624668251 -4.144322093875097, 86.00369742269618 -1.1582996762702047, 97.25145126053717 2.064663067214269" stroke="#000000" stroke-width="1" fill="none"></path></g></g><g transform="translate(34.390243902439806 87.82926829268399) rotate(0 26.5 13)"><text x="0" y="18" font-family="Virgil, Segoe UI Emoji" font-size="20px" fill="#000000" text-anchor="start" style="white-space: pre;" direction="ltr">/login</text></g><g transform="translate(10 50.487804878049246) rotate(0 89.6341463414634 64.63414634146329)"><path d="M-0.3314326535910368 1.4143785070627928 C48.22416989348557 2.144303473110152, 94.3334089914655 1.2042309962462907, 177.8446600481232 -0.17091460712254047 M-0.0686940336599946 0.07030119840055704 C69.25347356729937 1.8111095705478475, 139.55753566136175 0.8526689985244558, 178.45232505512584 0.42663841787725687 M181.18007445776064 -0.3819469977170229 C179.1071882985487 43.77905426219824, 180.96990348323726 85.08487478175705, 179.6006785079201 129.86445093223026 M179.6649469823872 0.89968925062567 C181.3752127955327 45.30885222779077, 180.4980568061242 92.35686350970441, 180.26031617236484 129.2341513444962 M179.11191994392473 128.99980831214359 C126.13392129669921 128.37557240431283, 71.4865367394395 128.28186299507593, -0.9780305754393339 130.7543856508391 M180.1224513442551 128.36103365917822 C132.4150821001428 130.46480452211364, 86.30795451710227 129.14931400807365, 0.10280906315892935 129.9645804276051 M-0.7602003943175077 129.63505858251025 C0.44990712015821377 85.88924452444385, 2.0107538661260786 40.20463156195849, -0.4834829103201628 1.7964359354227781 M0.8998578703030944 128.30755008359571 C-0.3689803369343274 91.82554730697993, -1.007525105029344 55.40799097964391, -0.38854865077883005 0.3680782550945878" stroke="#000000" stroke-width="1" fill="none"></path></g><g transform="translate(20.975609756098038 83.41463414634109) rotate(0 77.43902439024384 15.243902439024396)"><path d="M-0.4535811673849821 1.183469159528613 C47.29550094972931 -0.4164886014513305, 96.26814149274692 1.1555849177785584, 156.5956343311089 1.5721140336245298 M0.28078659530729055 -0.15025792177766562 C43.6192280159945 -0.7741445914115304, 85.43272799228474 -0.03309175523179708, 154.23349171329465 0.5858095223084092 M154.19325577199635 0.3566871117800474 C156.63384049536836 8.861217118458962, 153.55765187146318 14.12189450978143, 154.35964839637455 30.78286335013081 M155.295478874931 -0.2319111293181777 C154.03310616601752 7.592868049470029, 154.5526481746559 13.672706470506771, 155.29969205904928 29.630504321783974 M156.3362218636292 29.96070119879414 C120.28857129569184 30.679587718610456, 84.61645669272029 33.3597430554673, 1.0522256959229708 30.474372775770917 M155.78462996531454 30.06817765209098 C111.53930688949252 29.598077532097072, 68.19988953724229 30.632471051260204, -0.4427603567019105 30.00262652012725 M0.43851290829479694 29.94440117619206 C1.602194496260093 21.580496394847778, -0.6000813163657922 10.514120834084547, 1.988362716510892 0.25668869726359844 M-0.49947131518274546 30.50794969174285 C0.5447597034707121 23.124402016673884, 0.4337723084225706 16.609011728384697, -0.9864557171240449 0.7960787052288651" stroke="#000000" stroke-width="1" fill="none"></path></g><g><g transform="translate(94.29826342218894 184.33853053218354) rotate(0 1.0399377072702407 28.731509775463905)"><path d="M0.63804383687675 -0.1859501224011182 C0.9231035091264554 9.192522081763915, 2.441981550446902 47.60658681557264, 2.5659972926428964 57.23351139705701 M-0.4861218781024217 -1.329177882000804 C-0.4338082919733217 8.172971194417649, 0.9284973692812066 49.3316777663001, 1.6188136562159707 58.79219743292852" stroke="#000000" stroke-width="1" fill="none"></path></g><g transform="translate(94.29826342218894 184.33853053218354) rotate(0 1.0399377072702407 28.731509775463905)"><path d="M-9.780164231908817 32.4048417400802 C-5.073638462155832 40.17150987860807, -0.3860905450399521 51.35662262799916, 0.46518844919413826 60.149829282053545 M-9.00343758835395 31.77665277703204 C-6.30313019300414 38.22548706320488, -4.993892788112589 43.59785775957458, 2.137757615131741 58.73603825606479" stroke="#000000" stroke-width="1" fill="none"></path></g><g transform="translate(94.29826342218894 184.33853053218354) rotate(0 1.0399377072702407 28.731509775463905)"><path d="M9.777407146253303 31.45103930363631 C7.229794385384597 39.675845639622395, 4.655552065328547 51.21510835412075, 0.46518844919413826 60.149829282053545 M10.55413378980817 30.82285034058815 C9.103364149256977 37.57814187736734, 6.259561916976541 43.153052001971254, 2.137757615131741 58.73603825606479" stroke="#000000" stroke-width="1" fill="none"></path></g></g><g transform="translate(262.4390243902442 281.95121951219517) rotate(0 281 12.5)"><text x="0" y="20" font-family="Cascadia, Segoe UI Emoji" font-size="20px" fill="#000000" text-anchor="start" style="white-space: pre;" direction="ltr">dispatch(InitLoginPage, { location: "/login" });</text></g><g transform="translate(17.317073170731646 62.68292682926858) rotate(0 5.487804878048735 3.658536585365937)"><path d="M7.495887537512048 -0.735354054361693 C8.308153420650362 -0.6535893630370032, 8.4154803135551 1.2152376140032737, 9.013121007829312 2.092776485802278 C9.610761702103524 2.9703153576012826, 11.051455838769275 4.013987947571274, 11.081731703157317 4.529879176432333 C11.112007567545358 5.045770405293392, 9.83761776943072 4.565542772694221, 9.194776194157557 5.188123858968632 C8.551934618884394 5.810704945243043, 8.191369655905774 8.08482224580377, 7.224682251518336 8.2653656940788 C6.257994847130899 8.445909142353832, 4.459891761384501 6.731842634524166, 3.3946517678329324 6.271384548618822 C2.3294117742813643 5.810926462713478, 1.2236603489275455 6.190247053394538, 0.8332422902089274 5.5026171786467355 C0.44282423149030925 4.814987303898933, 0.7371667509586621 2.885523062987494, 1.0521434155212237 2.1456053001320097 C1.3671200800837853 1.4056875372765254, 1.7320074079537533 1.4740884708936832, 2.723102277584297 1.0631106015138299 C3.7141971472148403 0.6521327321339765, 5.952848872495838 -0.3106083148669582, 6.998712633304486 -0.32026191614711097 C8.044576394113134 -0.3299155174272637, 8.836405160299238 0.8942683537308985, 8.998284842436185 1.0051889938329133 M6.078167425631455 -0.4064760632689741 C7.310594944636776 -0.4946762140836169, 8.401808121980354 0.1626918774765777, 9.05395344044312 0.6059612948396227 C9.706098758905886 1.0492307122026676, 9.875400420492872 1.2473014417834394, 9.99103933640805 2.253140440909296 C10.10667825232323 3.2589794400351524, 10.082564817509397 5.846461928047083, 9.74778693593419 6.640995289594762 C9.413009054358984 7.43552865114244, 9.31893955284851 7.005479717332524, 7.982372046956809 7.020340610195367 C6.645804541065107 7.03520150305821, 3.054317992839902 6.831768126424503, 1.7283819005839813 6.730160646771817 C0.40244580832806043 6.628553167119131, 0.1581825813298443 7.307378215740017, 0.026755493421283028 6.410695732279251 C-0.10467159448727825 5.514013248818485, 0.38955524565832156 2.251908126817405, 0.9398193731326137 1.35006574600722 C1.4900835006069058 0.4482233651970352, 2.5434022565354772 1.4165905268249754, 3.3283402582670356 0.9996414474181425 C4.113278259998594 0.5826923680113096, 5.128045926116103 -0.9540120990707308, 5.649447383521965 -1.1516287304337771 C6.170848840927826 -1.3492453617968234, 6.249935662707028 -0.19705236487587907, 6.456749002702206 -0.18605834076013528" stroke="#000000" stroke-width="1" fill="none"></path></g><g transform="translate(48.64915572232553 10) rotate(0 39.51688555347124 13.699186991869965)"><text x="0" y="19.39837398374004" font-family="Virgil, Segoe UI Emoji" font-size="21.075672295184653px" fill="#000000" text-anchor="start" style="white-space: pre;" direction="ltr">browser</text></g><g transform="translate(392.92682926829275 94.39024390243958) rotate(0 72.56097560975604 49.39024390243901)"><path d="M83.53276229156025 1.0186666873418275 C94.66151735567462 1.6233973509063908, 108.20054738004414 6.017586626954628, 117.55302406540528 10.645985720146733 C126.90550075076642 15.274384813338838, 135.03550781657634 21.667972638276467, 139.64762240372707 28.789061246494455 C144.2597369908778 35.910149854712444, 146.41881846132623 45.325116847080686, 145.22571158830968 53.37251736945466 C144.03260471529313 61.41991789182864, 138.85085645216725 70.47121134921656, 132.48898116562788 77.0734643807383 C126.1271058790885 83.67571741226004, 117.38307933623253 89.2948771846124, 107.05445986907347 92.98603555858509 C96.72584040191441 96.67719393255777, 82.17147794746671 99.36834242359963, 70.51726436267356 99.22041462457436 C58.86305077788041 99.07248682554909, 47.051157749813015 96.01739602173512, 37.12917836031456 92.09846876443345 C27.20719897081611 88.17954150713177, 17.134901007721865 82.43564176635599, 10.985388025682823 75.70685108076435 C4.835875043643781 68.97806039517272, 0.9292217939132215 59.7387690624365, 0.23210046808030427 51.72572465088364 C-0.4650208577526129 43.71268023933078, 1.8312761933216661 34.665770922563574, 6.80266007068532 27.628584611447163 C11.774043948048973 20.591398300330752, 20.44342526040792 14.13539678892132, 30.06040373226223 9.502606784185176 C39.67738220411654 4.869816779449031, 53.851741962504434 1.2007017139305478, 64.50453090181118 -0.1681554169697037 C75.15731984111792 -1.5370125478699552, 87.66880841323051 0.32773136070695585, 93.97713736810269 1.289463998783667 C100.28546632297487 2.251196636860378, 102.8902798140378 4.545348409262947, 102.35450463104425 5.602240411490563 M102.08935620755494 4.583569847019973 C112.5743394460853 6.414987336682351, 121.76230818364157 11.423528530333723, 128.6401855062362 17.370745889890607 C135.51806282883084 23.31796324944749, 141.2154997394169 32.28732848104549, 143.35662014312277 40.26687400436127 C145.49774054682862 48.24641952767705, 145.03992038252053 57.777943650326904, 141.4869079284714 65.24801902978528 C137.93389547442226 72.71809440924366, 130.71375799606503 79.58922353073925, 122.03854541882788 85.08732628111156 C113.36333284159075 90.58542903148387, 100.99721462382178 96.25557274780923, 89.43563246504857 98.23663553201916 C77.87405030627536 100.2176983162291, 63.87035231414832 98.9272968484359, 52.669052466188646 96.97370298637117 C41.46775261822897 95.02010912430643, 30.626674135746377 91.68978241619274, 22.22783337729053 86.51507235963072 C13.828992618834683 81.3403623030687, 5.547048153980251 73.70685565914116, 2.2760079154535617 65.92544264699904 C-0.9950323230731271 58.14402963485694, 0.18131212422203902 47.63410138326081, 2.601591946130398 39.8265942867781 C5.021871768038757 32.019087190295394, 9.738536951724043 24.926634351611945, 16.797686846903716 19.0804000681028 C23.856836742083388 13.234165784593657, 34.43793031174412 7.814050090433353, 44.95649131720843 4.749188585723232 C55.475052322672745 1.6843270810131106, 70.71734404458292 0.6618417140929154, 79.9090528796896 0.6912310398420729 C89.10076171479628 0.7206203655912304, 96.75876624713436 4.13963544747106, 100.10674432784856 4.925524540218177 C103.45472240856276 5.711413632965294, 100.43746280703813 4.661455201113373, 99.99692136397476 5.406565596324775" stroke="#000000" stroke-width="1" fill="none"></path></g><g transform="translate(423.41463414634154 131.73170731707341) rotate(0 42 13)"><text x="0" y="18" font-family="Virgil, Segoe UI Emoji" font-size="20px" fill="#000000" text-anchor="start" style="white-space: pre;" direction="ltr">Hyperapp</text></g><g><g transform="translate(461.9409986765322 247.83901657857973) rotate(0 0.06952224713245414 -24.461523951589243)"><path d="M0.38063881807029243 -0.5836129289120435 C0.5167457791977388 -8.717207667280952, 1.0376179992225085 -40.70513613695761, 1.030283569358744 -48.898115412069686 M-0.8786645317822696 1.724386338070035 C-0.9524955246037978 -6.744183471252242, -0.708115518781909 -42.27778372819086, -0.11709993872746072 -50.64743424124849" stroke="#000000" stroke-width="1" fill="none"></path></g><g transform="translate(461.9409986765322 247.83901657857973) rotate(0 0.06952224713245414 -24.461523951589243)"><path d="M6.629222726432253 -27.696804573392132 C6.352696078102801 -36.32330769843741, 2.4939455850200947 -42.59515841078178, 1.5806140752513782 -52.294265468714954 M7.809710458835234 -26.37347374912874 C4.065994986973273 -35.51418300501537, 0.631941921241971 -45.263418540791506, -0.6071109220381006 -49.96760962914509" stroke="#000000" stroke-width="1" fill="none"></path></g><g transform="translate(461.9409986765322 247.83901657857973) rotate(0 0.06952224713245414 -24.461523951589243)"><path d="M-10.335831481280245 -28.25259893110859 C-5.221251972690554 -36.75628165798543, -3.688449139956032 -42.85149898731036, 1.5806140752513782 -52.294265468714954 M-9.155343748877264 -26.929268106845196 C-6.269436658428449 -35.81309753003228, -3.0787896183626735 -45.345300399995196, -0.6071109220381006 -49.96760962914509" stroke="#000000" stroke-width="1" fill="none"></path></g></g></svg>