<svg version="1.1" xmlns="http://www.w3.org/2000/svg" viewBox="0 0 821.344165450508 181.36328125">
  <!-- svg-source:excalidraw -->
  <defs>
    <style>
      @font-face {
        font-family: "Virgil";
        src: url("https://excalidraw.com/FG_Virgil.woff2");
      }
      @font-face {
        font-family: "Cascadia";
        src: url("https://excalidraw.com/Cascadia.woff2");
      }
    </style>
  </defs>
  <rect x="0" y="0" width="821.344165450508" height="181.36328125" fill="#ffffff"></rect><g transform="translate(10 51.6171875) rotate(0 99.5 12)"><text x="0" y="19" font-family="Cascadia, Segoe UI Emoji" font-size="20px" fill="#000000" text-anchor="start" style="white-space: pre;" direction="ltr">{text: "Welcome"}</text></g><g transform="translate(292.59375 10) rotate(0 69.466796875 61.666015625)"><path d="M-1.528742779046297 -1.9426873438060284 C40.170735970933315 1.2190175822398306, 78.62462069625472 0.12577720195266018, 138.4887999407947 1.3580358512699604 M0.4018194917589426 0.22868669591844082 C54.762378716338574 0.7022950297654462, 107.79337289270043 0.4959025627435041, 138.30243095196784 -0.8594238106161356 M138.03754891082644 -0.9804317466914654 C139.94463098437052 45.70247336725079, 136.72880268484812 92.7440706503825, 140.51079155132174 124.24709885194898 M138.10513623990119 -0.47246997989714146 C139.01506269880693 32.89249906816913, 139.40096814342897 65.17452706093755, 138.45932474173605 123.89273334108293 M137.5454108826816 122.35684292390943 C100.7916294977047 122.03032728470185, 63.5693536974446 122.70148357189515, -0.32654987648129463 124.44294362142682 M139.75420227088034 122.92594266496599 C91.03923935228012 122.691303016393, 44.662802205774625 121.97655254766207, -0.8061352130025625 122.37916440330446 M0.9488226287066936 123.94914155080914 C0.733901909459455 84.15203344625115, 1.6134181533940863 44.252924151507614, -1.4090886004269123 1.8841687925159931 M0.5956606511026621 122.46732062660158 C-0.7568272786180752 95.17514609068239, -0.018020375255801024 65.06748655415285, 0.7546472791582346 -0.4211877528578043" stroke="#000000" stroke-width="1" fill="none"></path></g><g><g transform="translate(225.67578125 65.96093749999994) rotate(0 29.39075476923489 0.5778753928840104)"><path d="M-0.9757611684501171 -0.967362255603075 C8.651519313206277 -0.7962582615514596, 47.71766812677185 1.733017195512851, 57.64562228396535 2.123113041371107 M0.7128254887741061 1.139168614866212 C10.702363965737945 1.4359640946208188, 50.25561018062445 -0.10610128549548489, 59.757270706919954 0.10413748306222259" stroke="#000000" stroke-width="1" fill="none"></path></g><g transform="translate(225.67578125 65.96093749999994) rotate(0 29.39075476923489 0.5778753928840104)"><path d="M30.635380987458696 8.5996764085407 C40.463732645012094 7.382552305356925, 47.19613453635185 5.6418227362407745, 60.3743810077291 0.6354678412992507 M31.543107113250365 11.447494498189782 C39.57360111240085 7.856643409495966, 48.0988605530102 5.159498591243809, 58.89256008352153 -0.3423645822238177" stroke="#000000" stroke-width="1" fill="none"></path></g><g transform="translate(225.67578125 65.96093749999994) rotate(0 29.39075476923489 0.5778753928840104)"><path d="M30.38560012446291 -11.516601548305625 C40.470239259668006 -6.894722874338283, 47.27511796990268 -2.79848072019276, 60.3743810077291 0.6354678412992507 M31.29332625025458 -8.668783458656543 C39.53875761954959 -6.37663556517699, 48.137049518284684 -3.19205986285443, 58.89256008352153 -0.3423645822238177" stroke="#000000" stroke-width="1" fill="none"></path></g></g><g transform="translate(338.04296875 146.36328125) rotate(0 20.5 12.5)"><text x="0" y="18" font-family="Virgil, Segoe UI Emoji" font-size="20px" fill="#000000" text-anchor="start" style="white-space: pre;" direction="ltr">view</text></g><g transform="translate(354.021484375 44.123046875) rotate(0 9 22.5)"><text x="9" y="32" font-family="Virgil, Segoe UI Emoji" font-size="36px" fill="#000000" text-anchor="middle" style="white-space: pre;" direction="ltr">f</text></g><g><g transform="translate(443.58984375 64.97851562500006) rotate(0 29.619325454677437 1.333944610436447)"><path d="M0.8826844029128551 0.8588130064308641 C10.956118668367465 1.319214724252621, 49.53331765855352 2.1515658286710577, 59.35169592425227 2.4038033314049243 M-0.1130450148973614 0.2640858894679696 C9.946877982358759 0.3920603979720424, 48.7544757165915 0.5321853800707806, 58.69903300835751 0.5321901753637939" stroke="#000000" stroke-width="1" fill="none"></path></g><g transform="translate(443.58984375 64.97851562500006) rotate(0 29.619325454677437 1.333944610436447)"><path d="M32.471479556527086 11.4674326627908 C37.65453932030901 9.907355716977928, 43.38976527442673 4.333616002137724, 59.10500776528381 1.3396817647013812 M30.46304336656267 10.244106890579845 C36.899482187273314 9.177117339733739, 43.668934526884804 6.467499562963328, 58.537310908949 0.04472962730564167" stroke="#000000" stroke-width="1" fill="none"></path></g><g transform="translate(443.58984375 64.97851562500006) rotate(0 29.619325454677437 1.333944610436447)"><path d="M32.51615283194273 -8.650346380013202 C37.629744577419906 -6.000298018619642, 43.35562231237314 -7.364241029615381, 59.10500776528381 1.3396817647013812 M30.507716641978316 -9.873672152224158 C36.73427934908886 -6.4879542667974, 43.493844356106585 -4.744995629741807, 58.537310908949 0.04472962730564167" stroke="#000000" stroke-width="1" fill="none"></path></g></g><g transform="translate(533.04296875 45.36328125) rotate(0 10.5 21.5)"><text x="0" y="35" font-family="Cascadia, Segoe UI Emoji" font-size="36px" fill="#000000" text-anchor="start" style="white-space: pre;" direction="ltr">{</text></g><g transform="translate(790.3359375 45.25) rotate(0.021928879636989664 10.5 21.5)"><text x="0" y="35" font-family="Cascadia, Segoe UI Emoji" font-size="36px" fill="#000000" text-anchor="start" style="white-space: pre;" direction="ltr">}</text></g><g transform="translate(578.56640625 32.14453125) rotate(0 47 9.5)"><text x="0" y="15" font-family="Cascadia, Segoe UI Emoji" font-size="16px" fill="#000000" text-anchor="start" style="white-space: pre;" direction="ltr">name: "h1"</text></g><g transform="translate(575.421875 60.484375) rotate(0 98.5 9.5)"><text x="0" y="15" font-family="Cascadia, Segoe UI Emoji" font-size="16px" fill="#000000" text-anchor="start" style="white-space: pre;" direction="ltr">props: {id : "title"}</text></g><g transform="translate(574.65625 92.37109375) rotate(0 98.5 9.5)"><text x="0" y="15" font-family="Cascadia, Segoe UI Emoji" font-size="16px" fill="#000000" text-anchor="start" style="white-space: pre;" direction="ltr">children: ["Welcome"]</text></g><g transform="translate(83.03515625 147.19140625) rotate(0 29 10)"><text x="0" y="14" font-family="Virgil, Segoe UI Emoji" font-size="16px" fill="#000000" text-anchor="start" style="white-space: pre;" direction="ltr">STATE</text></g><g transform="translate(599.66015625 146.80859375) rotate(0 59 10)"><text x="0" y="14" font-family="Virgil, Segoe UI Emoji" font-size="16px" fill="#000000" text-anchor="start" style="white-space: pre;" direction="ltr">VIRTUAL DOM</text></g></svg>